<?xml version="1.0" encoding="UTF-8"?>
<svg id="Layer_2" data-name="Layer 2" xmlns="http://www.w3.org/2000/svg" viewBox="0 0 297.27 297.27">
  <defs>
    <style>
      .cls-1 {
        fill: #5f5ca9;
      }

      .cls-1, .cls-2, .cls-3, .cls-4, .cls-5, .cls-6, .cls-7, .cls-8, .cls-9, .cls-10, .cls-11, .cls-12, .cls-13, .cls-14, .cls-15, .cls-16, .cls-17, .cls-18, .cls-19, .cls-20, .cls-21, .cls-22, .cls-23, .cls-24, .cls-25, .cls-26, .cls-27, .cls-28, .cls-29, .cls-30, .cls-31, .cls-32, .cls-33, .cls-34, .cls-35, .cls-36, .cls-37, .cls-38, .cls-39, .cls-40, .cls-41, .cls-42, .cls-43, .cls-44, .cls-45, .cls-46, .cls-47, .cls-48, .cls-49, .cls-50, .cls-51, .cls-52, .cls-53, .cls-54, .cls-55, .cls-56, .cls-57, .cls-58, .cls-59 {
        stroke-width: 0px;
      }

      .cls-2 {
        fill: #605eaa;
      }

      .cls-3 {
        fill: #7764ac;
      }

      .cls-4 {
        fill: #837bb9;
      }

      .cls-5 {
        fill: #7a6aaf;
      }

      .cls-6 {
        fill: #5e5ca8;
      }

      .cls-7 {
        fill: #5e5aa7;
      }

      .cls-8 {
        fill: #5e59a7;
      }

      .cls-9 {
        fill: #5e57a6;
      }

      .cls-10 {
        fill: #5d56a5;
      }

      .cls-11 {
        fill: #7867ae;
      }

      .cls-12 {
        fill: #6160ab;
      }

      .cls-13 {
        fill: #7c6fb2;
      }

      .cls-14 {
        fill: #7560aa;
      }

      .cls-15 {
        fill: #5c54a4;
      }

      .cls-16 {
        fill: #6365ae;
      }

      .cls-17 {
        fill: #56469c;
      }

      .cls-18 {
        fill: #594da0;
      }

      .cls-19 {
        fill: #5b53a3;
      }

      .cls-20 {
        fill: #5b52a3;
      }

      .cls-21 {
        fill: #6264ad;
      }

      .cls-22 {
        fill: #6262ac;
      }

      .cls-23 {
        fill: #6261ab;
      }

      .cls-24 {
        fill: #6468b0;
      }

      .cls-25 {
        fill: #55449b;
      }

      .cls-26 {
        fill: #8681bd;
      }

      .cls-27 {
        fill: #7067ae;
      }

      .cls-28 {
        fill: #584a9e;
      }

      .cls-29 {
        fill: #5a51a2;
      }

      .cls-30 {
        fill: #5a50a1;
      }

      .cls-31 {
        fill: #57479d;
      }

      .cls-32 {
        fill: #57489d;
      }

      .cls-33 {
        fill: #584b9f;
      }

      .cls-34 {
        fill: #8387c2;
      }

      .cls-35 {
        fill: #7365ad;
      }

      .cls-36 {
        fill: #666cb2;
      }

      .cls-37 {
        fill: #666db3;
      }

      .cls-38 {
        fill: #7d71b3;
      }

      .cls-39 {
        fill: #9f97ca;
      }

      .cls-40 {
        fill: #847ebb;
      }

      .cls-41 {
        fill: #7e73b5;
      }

      .cls-42 {
        fill: #7e74b5;
      }

      .cls-43 {
        fill: #7470b4;
      }

      .cls-44 {
        fill: #7f74b5;
      }

      .cls-45 {
        fill: #656cb2;
      }

      .cls-46 {
        fill: #ece9f4;
      }

      .cls-47 {
        fill: #ece8f4;
      }

      .cls-48 {
        fill: #eceaf5;
      }

      .cls-49 {
        fill: #ece6f3;
      }

      .cls-50 {
        fill: #fff;
      }

      .cls-51 {
        fill: #e8e6f3;
      }

      .cls-52 {
        fill: #e6dfef;
      }

      .cls-53 {
        fill: #eeecf6;
      }

      .cls-54 {
        fill: #e7e3f1;
      }

      .cls-55 {
        fill: #e7e4f2;
      }

      .cls-56 {
        fill: #e7e1f0;
      }

      .cls-57 {
        fill: #e7e5f3;
      }

      .cls-58 {
        fill: #6a73b6;
      }

      .cls-59 {
        fill: #6971b5;
      }
    </style>
  </defs>
  <g id="Layer_1-2" data-name="Layer 1">
    <g id="xtizgv.tif">
      <g>
        <path class="cls-25" d="M297.24,208.22v27.26c-.24.77-.24,1.55,0,2.32v2.03c-.32,1.85-.31,3.72-.48,5.58-.41,4.33-1.81,8.38-3.4,12.38-2.86,7.21-6.98,13.6-12.24,19.33-5.16,5.61-11.07,10.2-17.84,13.62-5.97,3.01-12.22,5.31-18.94,6-2.25.23-4.52.34-6.78.35-12.31.04-24.63.03-36.94.02-.92-.51-.39-1.08.03-1.5,1.19-1.19,2.56-2.22,3.65-3.46,2.07-2.35,4.49-4.33,6.66-6.57,2.02-2.09,3.95-4.34,6.47-5.91.46-.28.93-.63,1.17-1.06.85-1.55,2.4-2.32,3.64-3.44.29-.26.65-.47.83-.8,1.32-2.47,3.97-3.56,5.7-5.6,1.98-2.34,4.53-4.15,6.41-6.58.46-.59,1.08-.95,1.6-1.45,3-2.96,6.06-5.86,9.14-8.74,1.38-1.29,2.74-2.65,4.1-3.98.21-.2.42-.4.73-.44,1.23.06,2.4-.35,3.6-.49,5.36-.45,8.98-3.16,10.78-8.27.19-.54.26-1.14.77-1.53,1.44-.93,2.34-2.4,3.59-3.52,2.23-1.98,4.13-4.3,6.43-6.2.67-.56,1.27-1.19,1.89-1.8,3.71-3.65,7.44-7.28,11.21-10.86,2.05-1.94,4.17-3.86,6.03-6.02.55-.64,1.21-1.37,2.21-.64Z"/>
        <path class="cls-50" d="M200.39,296.9c12.37,0,24.76.4,37.11-.09,27.56-1.08,51.09-20.54,57.84-47.29.75-2.95,1.23-5.95,1.59-8.97.03-.27-.07-.6.31-.72,0,18.75,0,37.49.03,56.24,0,.97-.16,1.2-1.17,1.2-98.28-.03-196.55-.03-294.83,0-1.05,0-1.26-.21-1.26-1.26C.03,197.78.03,99.55,0,1.32,0,.2.29,0,1.35,0c18.8.04,37.59.03,56.39.03.05.74-.52.84-1.03.92-2.64.42-5.25,1-7.89,1.36-3.7.92-7.29,2.18-10.8,3.69-5.62,2.43-10.75,5.69-15.37,9.68-5.71,4.92-10.37,10.7-14.02,17.33-2.25,4.08-3.77,8.45-5.41,12.77-.21.56,0,1.16-.23,1.71-1.25,4.46-1.81,9.03-1.96,13.65-.05,1.52-.32,3.05-.05,4.59.01,6.21.08,12.42-.05,18.62.12,2.44.1,4.88-.05,7.31.18,3.44.18,6.88,0,10.31-.02.34-.02.67.06.99.03,8.06.19,16.12-.08,24.18,0,.25.04.48.08.72.04,6.08.2,12.16-.09,18.24,0,.19.03.38.07.57.13,2.15.09,4.31-.04,6.46.17,3.47.2,6.94,0,10.4-.02.29,0,.58.06.86.14,2.9.03,5.8,0,8.7.18,2.23-.03,4.47,0,6.7.14,3.09.01,6.19,0,9.28.09,4.35.06,8.71.02,13.06.02,7.77.11,15.54-.04,23.31.16,2.98.07,5.97.06,8.96-.02,4.21.73,8.34,1.2,12.51.04.34.23.63.39.93.39,2.13,1.1,4.19,1.66,6.28.91,2.6,2.2,5.06,3.07,7.68.08.23.26.39.42.57,1.58,2.82,3.14,5.64,5.1,8.23,1.31,1.73,2.68,3.42,4.03,5.11,1.34,1.15,2.34,2.62,3.65,3.8.53.48.99,1.03,1.64,1.37,1.52,1.3,3.14,2.47,4.65,3.79,3.6,2.4,7.35,4.54,11.25,6.4,3.67,1.37,7.31,2.77,11.15,3.62,2.02.45,4.08.71,6.1,1.18.15-.03.3-.05.45-.07.54,0,1.07.03,1.6.09.56.12,1.13.1,1.7.15,1.35.24,2.7.28,4.05.12,2.67.28,5.36-.02,8.03.17,6.03-.11,12.06-.05,18.09-.06,1.01,0,2.03-.08,3.03.08.92.29,1.81-.1,2.72-.09,8.42.02,16.85,0,25.27.02.24,0,.48-.01.71.07,1.35.21,2.68-.11,4.02-.11,11.71,0,23.42.08,35.13-.03.71.25,1.43.06,2.15.06,12-.02,24-.02,36,0,.76,0,1.56-.05,2.14.62Z"/>
        <path class="cls-28" d="M297.24,127.9v33.93c-1.27,1.52-2.65,2.94-4.15,4.2-1.56,1.31-2.92,2.8-4.3,4.27-1.16,1.23-2.63,2.11-3.77,3.37-2.66,2.92-5.49,5.68-8.38,8.36-3.33,3.08-6.46,6.35-9.74,9.47-3.66,3.48-7.18,7.12-10.89,10.55-2.76,2.55-5.33,5.28-8.08,7.83-3.25,3.01-6.32,6.2-9.56,9.22-.71.66-1.3,1.42-2.02,2.07-.5.45-.29.76.31.85.43.07.87.04,1.3.04,3.72,0,7.44,0,11.16,0,.48,0,.99-.05,1.43.14.62.26,1.04.65.27,1.25-2.42.42-4.86.22-7.29.11-7.43.26-14.87.11-22.31.07-1.3,0-2.58-.27-3.85.18-.47-.04-.94-.15-1.42-.16-5.81-.99-11.68-.25-17.51-.56-.96-.36-.85-1.05-.5-1.76.19-.39.52-.69.84-.98,2.11-1.95,4.19-3.93,6.1-6.08.2-.23.45-.35.75-.38,1.87-.06,3.74-.06,5.6-.01,2.07.06,4.11-.12,6.13-.49,8.32-.56,13.37-8.72,10.14-16.4-.19-.44-.44-.86-.42-1.37.17-1.51,1.12-2.45,2.13-3.56,2.35-2.57,5.16-4.65,7.34-7.37.72-.9,1.71-1.55,2.56-2.33,2.59-2.37,5.14-4.78,7.66-7.21,5-4.8,9.92-9.7,14.92-14.5,2.77-2.66,5.55-5.32,8.14-8.17.78-.85,1.62-1.67,2.51-2.38,2.53-2.01,4.57-4.51,7-6.63,2.74-2.39,5.22-5.12,7.83-7.67,2.27-2.22,4.23-4.77,6.89-6.57.46-.31.56-.91.98-1.24.68-.53,1.39-1.24,2.17-.11Z"/>
        <path class="cls-18" d="M297.24,127.9c-.65-.38-1.27-.05-1.53.4-.78,1.35-2.14,2.04-3.18,3.08-3.83,3.78-7.58,7.65-11.46,11.38-1.66,1.6-3.65,2.88-5.05,4.68-1.9,2.45-4.48,4.16-6.51,6.49-2.35,2.71-5.11,5.06-7.69,7.56-2.35,2.28-4.76,4.49-7.04,6.84-2.78,2.86-5.56,5.77-8.53,8.38-2.95,2.6-5.76,5.36-8.63,8.03-2.2,2.04-4.62,3.94-6.44,6.41-.48.65-1.06,1.33-1.74,1.72-1.09.61-1.59,1.49-1.8,2.64-.71.23-1.07-.25-1.43-.71-2.52-3.27-5.95-4.55-9.96-4.75-4.34-.22-8.68-.14-13.02-.31-.87-.6-.53-1.29-.01-1.83,2.24-2.33,4.5-4.65,6.88-6.84,2.84-2.6,5.73-5.15,8.26-8.06,1.05-1.21,2.46-1.96,3.54-3.16,3.48-3.86,7.51-7.17,11.13-10.9,2.38-2.45,4.86-4.82,7.39-7.12,2.28-2.07,4.47-4.25,6.65-6.4,1.97-1.95,4-3.88,5.98-5.82,2.96-2.89,5.79-5.94,8.96-8.62.82-.69,1.5-1.5,2.24-2.25,3.61-3.68,7.32-7.24,11.01-10.83,2.86-2.78,5.79-5.51,8.62-8.31,2.97-2.94,6.17-5.66,9-8.76.84-.92,1.9-1.64,2.8-2.51.44-.42.97-.64,1.58-.28v29.87Z"/>
        <path class="cls-37" d="M.37,84.41c0-6.28,0-12.56,0-18.85.76-1.93,2.48-3.05,3.92-4.34,1.26-1.12,2.37-2.39,3.58-3.55,2.32-2.23,4.65-4.46,6.91-6.75,1.83-1.85,3.82-3.52,5.53-5.49.73-.83,1.5-1.64,2.5-2.18.56-.3,1.01-.75,1.41-1.23,2.69-3.21,5.82-6.01,8.93-8.78,2.4-2.15,4.68-4.44,6.93-6.71,2.26-2.27,4.77-4.3,6.83-6.82,1.24-1.52,2.97-2.72,4.37-4.17,2.61-2.7,5.38-5.24,8.07-7.85,2.68-2.6,5.12-5.51,8.23-7.66h20.3c.53.68.14,1.24-.34,1.63-2.61,2.13-4.57,4.93-7.34,6.91-.89.63-1.72,1.42-2.21,2.45-.17.35-.41.68-.73.89-2.88,1.85-5.08,4.47-7.45,6.84-2.55,2.54-5.44,4.74-7.66,7.62-.77,1-1.92,1.73-2.89,2.57-1.58,1.37-2.75,3.17-4.38,4.37-2.32,1.71-4.06,3.97-6.07,5.94-2.22,2.19-4.8,4.05-6.68,6.56-.71.95-1.77,1.45-2.58,2.28-1.98,2.01-3.97,4.02-6.06,5.93-1.07.98-2.19,1.97-3.09,3.17-.84,1.12-2.05,1.88-3.05,2.85-2.1,2.04-4.27,4.02-6.36,6.07-2.36,2.32-4.65,4.71-7.12,6.93-1.92,1.73-3.77,3.55-5.56,5.44-1.75,1.85-3.69,3.52-5.5,5.33-.55.55-1.43,1.28-2.45.59Z"/>
        <path class="cls-30" d="M297.24,98.04c-1.54.7-2.6,2.02-3.76,3.14-2.53,2.43-5.15,4.78-7.59,7.3-1.97,2.04-4.09,3.93-6.03,6.02-1.91,2.07-4.3,3.71-6.17,5.84-1.91,2.18-4.06,4.12-6.12,6.12-2.65,2.57-5.3,5.16-7.98,7.69-3.57,3.36-7.16,6.71-10.6,10.19-3.45,3.47-7.06,6.78-10.5,10.25-4.1,4.14-8.2,8.3-12.55,12.16-1.67,1.48-2.95,3.31-4.64,4.68-2.81,2.28-5.17,5.01-7.83,7.44-3.38,3.08-6.59,6.33-9.88,9.51-.28.27-.51.58-.58.98-.36.53-.92.45-1.44.45-4.37,0-8.74.05-13.1-.02-1-.22-.87-.89-.55-1.56.27-.57.79-.96,1.25-1.4,2.91-2.79,5.79-5.6,8.67-8.42,1.98-1.95,3.91-3.97,6.01-5.81,2.2-1.92,4.3-3.97,6.29-6.11.78-.85,1.65-1.62,2.47-2.42,1.85-1.8,3.85-3.45,5.57-5.39.69-.78,1.7-1.11,2.39-1.86,2.5-2.72,5.19-5.25,7.84-7.81,2.52-2.43,4.96-4.96,7.51-7.38,2.29-2.18,4.55-4.42,6.75-6.69,1.76-1.82,3.6-3.59,5.49-5.29,1.11-1,2.15-2.07,3.17-3.15,1.82-1.92,3.87-3.59,5.68-5.51,2.01-2.13,4.43-3.81,6.36-6.03.79-.9,1.61-1.78,2.71-2.36.91-.48,1.37-1.47,2.06-2.21,2.02-2.17,4.38-3.99,6.3-6.29.96-1.15,2.36-1.97,3.41-3.1,3.09-3.3,6.58-6.18,9.72-9.42,2.23-2.29,4.59-4.45,6.81-6.74.71-.73,1.4-2,2.86-1.32v14.5Z"/>
        <path class="cls-24" d="M106.44.03h26.1c.35.67-.08,1.1-.48,1.52-1.73,1.88-3.73,3.48-5.47,5.36-2.85,3.07-6.08,5.74-9.04,8.7-2.19,2.2-4.29,4.55-6.75,6.48-.69.54-1.28,1.18-1.89,1.79-3.48,3.45-7.06,6.8-10.51,10.29-2.84,2.88-5.84,5.59-8.72,8.42-2.77,2.72-5.34,5.68-8.41,8.12-1.1.87-1.96,2.05-3.07,2.95-2.69.24-5.39.1-8.08.11-4.86.02-9.71.01-14.57,0-.86,0-1.73.03-2.59-.13-1.08-.52-.93-1.32-.29-1.99,1.69-1.79,3.4-3.57,5.24-5.2,1.37-1.21,2.73-2.43,3.88-3.85.77-.95,1.85-1.51,2.68-2.41,2.07-2.27,4.43-4.24,6.69-6.31,1.95-1.79,3.75-3.74,5.65-5.58,3-2.91,5.81-6.03,8.97-8.78,1.5-1.31,2.79-2.81,4.27-4.13,2.49-2.2,4.77-4.63,7.09-7,2.03-2.06,4.33-3.84,6.19-6.06.86-1.02,1.97-1.67,3.1-2.3Z"/>
        <path class="cls-29" d="M297.24,62.08v14.5c-2.23,2.73-4.84,5.09-7.35,7.54-3.72,3.64-7.48,7.24-11.19,10.88-4.92,4.82-9.84,9.64-14.9,14.32-2.43,2.25-4.58,4.82-7.09,6.95-2.31,1.97-4.06,4.51-6.58,6.25-.4.28-.64.71-.96,1.07-1.76,1.97-3.83,3.62-5.62,5.55-2.13,2.3-4.61,4.22-6.71,6.54-.84.93-1.67,1.89-2.75,2.55-1.19.72-1.8,1.98-2.79,2.9-3.67,3.39-7.18,6.96-10.85,10.35-3.01,2.78-5.98,5.61-8.85,8.51-3.25,3.29-6.67,6.39-9.94,9.67-2.99,2.99-6.02,5.96-9.08,8.88-3.61,3.45-7.06,7.08-10.83,10.37-.26.23-.36.57-.63.79-.25.18-.47.4-.79.46-.8.08-1.57-.18-2.36-.16-1-.07-1.95-.37-2.91-.61-.68-.68-.12-1.1.33-1.54,2.1-2.04,4.13-4.15,6.26-6.17.89-.85,2.28-1.15,2.74-2.47,1.81-1.14,3.35-2.62,4.98-3.99.77-.18,1-.69.86-1.43.14-.64.31-1.28.77-1.78,2.03-2.01,4.75-3.28,6.24-5.87.64-1.1,1.9-1.47,2.73-2.33,2.5-2.54,5.24-4.83,7.72-7.36,1.46-1.49,2.99-2.82,4.57-4.14,1.21-1.02,1.9-2.51,3.21-3.49,1.1-.82,2.16-1.71,2.95-2.94.57-.89,2.04-.86,2.58-1.96,2.16-1.12,4.12-2.51,5.5-4.54,1.94-2.86,2.36-6.03,1.71-9.38-.09-.47-.31-.92-.24-1.41.4-1.58,1.72-2.51,2.68-3.68.9-1.1,1.93-2.1,3.18-2.88.91-.57,1.64-1.45,2.41-2.24,2.74-2.82,5.66-5.47,8.35-8.34.13-.14.3-.23.48-.31,1.34-.17,2.69-.18,4.02-.46,6.22-1.31,10.14-6.81,9.34-13.12-.07-.53-.11-1.06.17-1.55,1.82-2.3,4.27-3.94,6.3-6.05,2-2.07,4.21-4.04,6.32-6.06,1.91-1.82,3.81-3.66,5.61-5.59.72-.78,1.41-1.58,2.32-2.16,1.85-1.18,2.85-3.2,4.57-4.56,2.78-2.2,5.27-4.76,7.8-7.24,1.09-1.06,2.24-2.1,3.22-3.29.6-.73,1.34-1.33,2.3-.44.17.47-.11,1.01.2,1.47Z"/>
        <path class="cls-6" d="M237.8.03h1.74c2.38.3,4.78.3,7.15.59,2.45.29,4.81.98,7.13,1.78.36.12.7.33.91.68.31.68,0,1.22-.44,1.7-.7.73-1.34,1.52-2.08,2.22-4.14,3.87-8.15,7.88-12.22,11.83-2.1,2.04-4.29,4.01-6.35,6.07-2.41,2.4-4.87,4.77-7.27,7.19-3.96,3.99-8.01,7.91-12.16,11.7-1.18,1.08-2.21,2.28-3.37,3.34-2.09,1.9-3.91,4.1-6.2,5.79-.95.7-1.41,1.84-2.44,2.45-1.15.35-1.94-.65-2.95-.8-.97-.06-1.9-.3-2.84-.5-4.57-.96-9.2-.36-13.8-.52-.77-.03-1.54.03-2.3-.04-1.13-.43-.64-1.09-.21-1.7.97-1.4,2.21-2.55,3.42-3.73,2.8-2.71,5.62-5.4,8.39-8.13,3.22-3.17,6.63-6.17,9.79-9.39,2.19-2.24,4.57-4.26,6.78-6.46,3.62-3.6,7.2-7.24,10.99-10.68,1.88-1.7,3.5-3.72,5.45-5.37,3.03-2.58,5.26-6.03,8.84-8h1.74c.77.24,1.55.24,2.32,0Z"/>
        <path class="cls-2" d="M233.74.03c-.16.83-.79,1.36-1.41,1.76-1.11.72-2,1.62-2.85,2.63-2.05,2.43-4.65,4.29-6.83,6.58-2.49,2.62-5.29,4.93-7.73,7.56-2.2,2.37-4.87,4.25-6.78,6.88-.74,1.02-1.88,1.63-2.81,2.47-2.94,2.69-5.73,5.55-8.66,8.25-3.52,3.24-6.88,6.67-10.3,10.03-2.26,2.22-4.74,4.24-6.56,6.88-.52.63-1.24.43-1.89.43-6.62.02-13.23,0-19.85,0-.5-.02-1,.04-1.49-.09-.89-.7-.29-1.28.21-1.79,2.82-2.87,5.7-5.7,8.6-8.49,2.2-2.11,4.26-4.39,6.66-6.34,2.28-1.86,4.41-3.98,6.45-6.16,1.75-1.87,3.69-3.61,5.55-5.39,2.02-1.93,4.1-3.79,5.98-5.86,1.71-1.89,3.68-3.51,5.51-5.27.45-.43.98-.78,1.25-1.36.59-1.26,1.9-1.74,2.83-2.63,3.03-2.88,5.89-5.93,8.99-8.73.54-.49,1.16-.87,1.65-1.4h23.49Z"/>
        <path class="cls-16" d="M78.61,53.09c.09-1.43,1.35-2.21,2.2-2.87,2.42-1.87,4.28-4.26,6.51-6.3,3.19-2.92,6.22-6.01,9.38-8.96,1.92-1.79,3.8-3.65,5.6-5.57,1.29-1.38,2.86-2.59,4.16-3.95,2.32-2.45,5.06-4.46,7.2-7.08.15-.19.25-.46.44-.57,2.59-1.51,4.14-4.12,6.39-6,2.24-1.87,4.33-3.93,6.33-6.06,1.85-1.97,4.1-3.51,5.73-5.7h20.3c.3.69-.18,1.03-.57,1.47-2.31,2.59-4.85,4.95-7.35,7.33-2.47,2.35-4.65,5-7.37,7.11-1.38,1.08-2.59,2.43-3.84,3.69-2.95,2.97-6.08,5.77-8.97,8.79-2.56,2.68-5.39,5.06-7.95,7.73-1.82,1.89-3.76,3.71-5.72,5.48-1.6,1.45-3.14,2.97-4.69,4.48-2.47,2.41-4.98,4.78-7.42,7.22-.14.14-.35.14-.55.16-2.41.04-4.81.06-7.22,0-3.51-.07-7,.46-10.51.24-.74-.05-1.58.16-2.08-.66Z"/>
        <path class="cls-12" d="M210.25.03c.04.77-.48,1.23-.97,1.69-3,2.88-6.03,5.73-9.01,8.63-4.16,4.06-8.24,8.21-12.46,12.21-1.91,1.81-3.81,3.63-5.68,5.47-1.93,1.9-3.97,3.72-5.78,5.76-1.16,1.3-2.52,2.49-3.86,3.61-1.55,1.3-3.01,2.64-4.35,4.18-1.12,1.28-2.58,2.25-3.77,3.53-2.58,2.76-5.36,5.33-8.06,7.98-.37.51-.93.43-1.45.43-5.82,0-11.63.04-17.45-.02-1.21-.3-1.04-1.09-.59-1.88.31-.54.79-.98,1.28-1.38,2.62-2.14,5.03-4.51,7.36-6.93,1.96-2.04,4.41-3.61,5.96-6.06.44-.7,1.25-1.05,1.84-1.62,5.13-5.02,10.41-9.91,15.38-15.09,1.2-1.26,2.73-2.14,3.85-3.49,2.29-2.74,5.19-4.86,7.69-7.4,2.87-2.91,5.88-5.7,8.79-8.59.46-.45,1.12-.58,1.55-1.04h19.72Z"/>
        <path class="cls-45" d="M106.44.03c-.1.85-.95,1.03-1.39,1.57-2.07,2.54-4.68,4.54-6.99,6.83-4.95,4.9-9.84,9.88-15.02,14.56-2.34,2.12-4.48,4.47-6.71,6.71-2.24,2.24-4.29,4.73-6.79,6.62-2.43,1.84-4.4,4.13-6.57,6.19-2.87,2.72-5.91,5.31-8.54,8.29-.65.74-1.7,1.17-1.92,2.28-.34.73-1.07.82-1.71.87-5.1.37-9.51,4.73-10.3,9.98-.08.56-.05,1.16-.37,1.68-2.61,2.55-5.27,5.06-7.86,7.64-1.49,1.48-2.84,3.14-4.68,4.26-1.1.67-1.76,1.77-2.53,2.76-.3.38-.54.87-.96,1.07-1.82.85-2.82,2.59-4.28,3.83-2.43,2.05-4.64,4.36-6.83,6.62-3.45,3.55-7.17,6.81-10.57,10.41-.52.55-1.05,1.38-2.05.76,0-3.77,0-7.54,0-11.31,2.06-1.93,3.77-4.2,5.93-6.05,1-.86,2.03-1.76,2.85-2.85.92-1.23,2.2-2.11,3.3-3.17,2.87-2.77,5.78-5.5,8.68-8.25,7.1-6.74,14.02-13.67,21.04-20.48,2.34-2.27,4.68-4.56,6.99-6.86,2.89-2.88,5.86-5.71,8.96-8.39,1.03-.89,1.75-2.05,2.77-2.95,2.79-2.45,5.48-5,8.11-7.61,3.14-3.12,6.49-6.04,9.46-9.31,2.59-2.85,5.57-5.28,8.21-8.08,2.25-2.39,4.58-4.8,7.21-6.84.47-.36,1.07-.44,1.54-.79h11.02Z"/>
        <path class="cls-59" d="M67.59.03c.04.77-.46,1.25-.98,1.69-3.29,2.82-6.21,6.02-9.31,9.03-2.83,2.74-5.68,5.46-8.49,8.21-2.56,2.51-5.07,5.08-7.67,7.54-2.88,2.73-5.55,5.69-8.67,8.19-1.15.93-2.08,2.13-3.15,3.16-4.13,3.98-8.33,7.9-12.42,11.93-2.87,2.83-5.79,5.6-8.63,8.46-2.53,2.55-5.02,5.17-7.91,7.33-.22-6.29.34-12.49,2.03-18.57,2.04-3.15,5.08-5.35,7.62-8.03,1.85-1.95,3.86-3.75,5.71-5.7,1.43-1.5,3.02-2.83,4.49-4.3,1.21-1.22,2.75-2.09,3.67-3.62.48-.79,1.36-1.22,2.04-1.83,2.42-2.21,4.66-4.59,7.08-6.8,3.52-3.22,6.83-6.65,10.33-9.9.87-.81,1.84-1.55,2.5-2.59.66-1.03,1.86-1.5,2.63-2.42,2.74-.8,5.56-1.13,8.37-1.49.32-.04.7.09.9-.3h1.74c.77.24,1.55.24,2.32,0h5.8Z"/>
        <path class="cls-32" d="M251.14,222.98c-.57-.37-1.21-.26-1.83-.26-4.2,0-8.4,0-12.6-.01-.6,0-1.36.19-1.66-.55-.33-.83.35-1.2.91-1.59.96-.67,1.62-1.64,2.45-2.43,3.59-3.4,7.05-6.92,10.61-10.35,4.01-3.87,8.08-7.68,12.1-11.55,2.77-2.67,5.45-5.43,8.23-8.08,2.92-2.79,5.84-5.59,8.74-8.4,2.02-1.96,4.14-3.86,6.01-6,1.55-1.77,3.53-3.15,5.07-4.92,1.9-2.19,4.41-3.72,6.17-6.04.44-.57,1.19-.81,1.91-.97v15.95c-.69,2.01-2.67,2.82-3.96,4.26-2.37,2.65-5.01,5.05-7.61,7.47-3.34,3.1-6.53,6.35-9.81,9.5-2.7,2.6-5.35,5.26-8.08,7.83-4.06,3.83-7.97,7.8-12,11.65-.66.63-1.34,1.24-2.02,1.84-.76.66-1.42,1.45-1.51,2.54-.07.14-.17.24-.3.31-.31.1-.59.08-.81-.21Z"/>
        <path class="cls-50" d="M254.68,3.48c-4.54-1.8-9.3-2.59-14.11-3.16-.35-.04-.79.15-1.03-.29C258.38.03,277.23.04,296.08,0c.99,0,1.19.19,1.19,1.19-.04,18.75-.03,37.5-.03,56.25-.91,0-.87-.73-.98-1.31-.54-3.03-.89-6.09-1.75-9.06-.34-1.2-.57-2.43-1.08-3.58-.8-1.77-1.54-3.55-2-5.44-.95-2.31-2.31-4.42-3.31-6.71-1.96-2.93-3.89-5.87-6.18-8.56-.44-.52-.92-.98-1.36-1.5-1.66-2.25-3.86-3.96-5.92-5.8-2.29-2.05-4.85-3.74-7.39-5.46-3.62-2.18-7.41-3.99-11.35-5.51-.54-.21-1.12-.36-1.26-1.04Z"/>
        <path class="cls-19" d="M293.8,43.22c.68.26.61.95.76,1.46,1.19,3.98,2,8.04,2.39,12.18.02.23-.01.49.29.59v.29c-.31.58-.07,1.2-.15,1.8-.05.37.14.78-.17,1.1-.67-.04-1.16.2-1.64.72-2.61,2.87-5.5,5.46-8.27,8.19-1.9,1.88-4.37,3.2-5.7,5.65-.09.16-.24.31-.4.42-4.5,3.34-8,7.74-12.06,11.55-1.92,1.8-3.98,3.52-5.71,5.6-1.04,1.24-2.46,2.62-4.21,3.25-.78.1-.95-.52-1.16-1.04-.4-.98-.93-1.89-1.52-2.76-1.56-2.05-3.64-3.35-6.05-4.15-.59-.19-1.22-.29-1.58-.9-.28-.7.07-1.17.53-1.66,2.14-2.28,4.57-4.28,6.7-6.53,1.85-1.95,4.11-3.49,5.7-5.7.94-1.3,2.49-1.96,3.48-3.24,2.02-2.62,4.92-4.31,7.13-6.7,2.35-2.54,5.06-4.71,7.33-7.34,1.25-1.44,2.77-2.67,4.21-3.95.5-.45,1.04-.86,1.5-1.36,2.18-2.38,4.58-4.55,6.87-6.82.46-.46.91-1.08,1.73-.66Z"/>
        <path class="cls-30" d="M180.97,189.35c.1-.22.14-.49.29-.65,2.73-2.7,5.39-5.49,8.24-8.05,1.76-1.58,3.28-3.38,5-5,4.48-4.22,8.8-8.61,13.28-12.84,4.4-4.16,8.65-8.49,13.07-12.64,2.34-2.2,4.88-4.22,6.92-6.76.9-1.13,2.39-1.78,3.28-2.99,1.61-2.18,4.06-3.51,5.7-5.66.66-.87,1.56-1.57,2.42-2.26,2.55-2.05,4.76-4.49,7.03-6.8,2.44-2.48,5.13-4.73,7.38-7.43,1.27-1.52,2.98-2.69,4.36-4.16,1.11-1.19,2.27-2.33,3.45-3.45,1.99-1.89,4.03-3.73,6-5.63,2.53-2.44,4.96-5,7.56-7.35,3.48-3.14,6.61-6.62,10.1-9.75,3.25-2.91,6.23-6.13,9.35-9.2.85-.83,1.52-1.91,2.84-2.14v6.96c-1.16.59-2.12,1.39-2.94,2.45-.81,1.03-1.83,1.94-2.89,2.73-.68.5-1.3,1-1.64,1.76-.52,1.16-1.72,1.64-2.56,2.45-2.11,2.03-4.12,4.18-6.35,6.06-2,1.69-3.46,3.92-5.75,5.35-.89.56-1.55,1.64-2.33,2.48-1.78,1.92-3.62,3.86-5.57,5.51-2.2,1.86-3.85,4.3-6.34,5.82-1.55.94-2.33,2.64-3.74,3.77-2.88,2.3-5.27,5.14-7.93,7.68-1.92,1.84-3.91,3.65-5.79,5.52-2.54,2.54-5.05,5.13-7.67,7.58-2.21,2.07-4.34,4.25-6.42,6.42-2.08,2.17-4.74,3.8-6.34,6.44-.33.55-.97.94-1.53,1.3-2,1.32-3.6,3.12-5.3,4.75-1.96,1.87-4.03,3.65-5.83,5.71-1.16,1.33-2.56,2.44-3.84,3.66-1.8,1.72-3.54,3.49-5.39,5.15-2.35,2.12-4.27,4.68-6.82,6.59-.86.64-1.52,1.52-2.16,2.31-1.27,1.57-3.32,2.38-4.18,4.32-.2.32-.52.42-.87.43-1.74.05-3.48.05-5.22,0-.35-.01-.67-.11-.87-.43Z"/>
        <path class="cls-17" d="M297.24,208.22c-.59.1-1.09.37-1.51.8-2.87,2.9-5.83,5.7-8.74,8.56-3.16,3.1-6.33,6.2-9.49,9.3-3.39,3.33-6.79,6.64-10.18,9.97-.31.31-.64.6-1.1.66-1.03-.68-.61-1.75-.65-2.65-.15-3.55-1.64-6.4-4.36-8.64-.55-.45-1.26-.75-1.48-1.53-.18-1.01.26-1.76,1-2.4,1.82-1.57,3.56-3.24,5.21-4.99,1.97-2.1,4.13-4.02,6.33-5.88.73-.62,1.45-1.32,2.01-2.04,1.77-2.29,4.08-4.05,6.05-6.12,2.49-2.62,4.98-5.33,7.96-7.48,1.07-.78,1.59-2.02,2.57-2.9,1.39-1.24,2.94-2.33,4.04-3.9.53-.76,1.35-1.34,2.32-.46v19.72Z"/>
        <path class="cls-36" d="M95.43.03c-1.05,1.4-2.58,2.34-3.7,3.63-2.15,2.46-4.87,4.32-6.86,6.96-.92,1.22-2.4,2.01-3.5,3.18-2.09,2.24-4.32,4.35-6.52,6.49-2.55,2.48-5.18,4.86-7.67,7.39-2.49,2.53-5.25,4.77-7.65,7.41-1.88,2.06-4.12,3.78-6.05,5.8-1.85,1.93-4.18,3.33-5.74,5.6-.76,1.11-2.12,1.8-3.11,2.77-3.06,3-6,6.13-9.12,9.06-4.27,4.02-8.32,8.28-12.58,12.3-3.38,3.19-6.75,6.4-10.16,9.57-1.9,1.76-3.71,3.69-5.59,5.49-1.7,1.62-3.19,3.42-4.9,5.01-.52.48-1.1.95-1.89.97,0-2.42,0-4.83,0-7.25,1.83-.48,2.88-1.97,4.13-3.18,2.83-2.74,5.41-5.76,8.44-8.25,2.24-1.84,4.07-4.05,6.2-5.97,2.23-2.01,4.44-4.12,6.44-6.4.72-.82,1.63-1.5,2.46-2.17,2.19-1.76,3.9-3.96,5.99-5.81,1.87-1.66,3.55-3.61,5.41-5.28,1.78-1.6,3.16-3.61,5.18-4.95.32-.21.65-.44.89-.73,2.01-2.46,4.42-4.56,6.67-6.76,2.14-2.1,4.21-4.31,6.47-6.31,1.74-1.54,3.72-2.9,4.99-4.94.15-.24.34-.48.57-.65,4.52-3.46,7.92-8.13,12.53-11.48.8-.58.96-1.64,1.76-2.26,3.04-2.36,5.51-5.33,8.39-7.86.44-.38.91-.74,1-1.37h7.54Z"/>
        <path class="cls-21" d="M98.91,53.08c.01-.4.09-.77.39-1.06,2.93-2.78,5.97-5.46,8.76-8.38,1.79-1.88,3.82-3.5,5.54-5.47,1.17-1.34,2.69-2.41,3.96-3.73,2.42-2.52,5.09-4.81,7.56-7.3,3.28-3.31,6.71-6.49,10.06-9.74,2.72-2.64,5.43-5.31,8.14-7.97,3.18-3.13,6.36-6.27,9.54-9.4,3.48,0,6.96,0,10.44,0,.57.75.07,1.29-.42,1.75-3.4,3.26-6.83,6.51-10.17,9.83-2.04,2.03-4.11,4.03-6.14,6.06-1.9,1.9-3.74,3.86-5.83,5.57-.15.12-.31.23-.44.38-3.66,4.09-7.88,7.61-11.77,11.47-2.21,2.19-4.47,4.35-6.7,6.52-3.06,2.98-6,6.11-9.23,8.91-.9.78-1.59,1.8-2.6,2.48-.36.25-.67.54-1.15.52-2.78.02-5.57.01-8.35,0-.56,0-1.17.13-1.59-.44Z"/>
        <path class="cls-22" d="M190.53.03c-.06.46-.34.8-.66,1.09-2.53,2.3-4.73,4.94-7.37,7.13-1.25,1.04-2.28,2.35-3.49,3.44-3.29,2.93-6.31,6.15-9.6,9.09-3.12,2.79-5.84,6.02-8.96,8.82-2.76,2.47-5.38,5.11-7.98,7.71-1.98,1.99-4.11,3.86-5.98,6-2.11,2.41-4.67,4.42-7.02,6.62-.99.94-2.34,1.6-2.58,3.15-.37.52-.93.43-1.45.43-2.55,0-5.1.04-7.64-.02-1.17-.38-1.01-1.1-.45-1.89.65-.91,1.59-1.53,2.37-2.31,2.06-2.07,4.09-4.17,6.39-6,.71-.56,1.17-1.4,1.86-2.01,3.03-2.74,5.8-5.76,8.93-8.4,1.1-.93,1.85-2.22,2.95-3.18,2.68-2.35,4.99-5.07,7.63-7.44,4.01-3.6,7.78-7.44,11.67-11.15,2.49-2.37,5-4.73,7.41-7.18,1.37-1.39,2.74-2.84,4.41-3.91h9.57Z"/>
        <path class="cls-21" d="M109.34,53.08c1.86-2.22,4.15-4.02,6.1-6.11,2.33-2.5,4.86-4.8,7.3-7.18,2.08-2.03,4.17-4.1,6.28-6.11,2.07-1.98,4.19-3.95,6.23-5.96,2.63-2.59,5.24-5.21,7.93-7.74,2.9-2.72,5.54-5.72,8.5-8.37,2.26-2.03,4.4-4.19,6.57-6.3,1.73-1.68,3.86-3.04,5.03-5.27h8.99c.5.99-.17,1.58-.81,2.07-1.34,1.05-2.42,2.33-3.58,3.56-1.42,1.5-3,2.84-4.5,4.26-2.77,2.61-5.48,5.27-8.18,7.95-3.18,3.15-6.44,6.21-9.71,9.27-2.24,2.09-4.4,4.29-6.59,6.44-3.43,3.37-6.87,6.72-10.27,10.12-2.58,2.58-5.43,4.88-7.86,7.62-.78.88-1.64,1.87-2.92,2.21-2.31.02-4.61.02-6.92,0-.56,0-1.17.13-1.59-.44Z"/>
        <path class="cls-31" d="M297.24,188.5c-.8-.08-1.47.24-1.86.89-.81,1.31-2.15,2.07-3.12,3.16-2.33,2.61-5.03,4.82-7.44,7.34-1.16,1.2-2.43,2.3-3.71,3.37-1,.83-1.54,2.01-2.53,2.9-3.9,3.51-7.67,7.17-11.4,10.87-2.05,2.03-4.04,4.12-6.25,5.98-.46.39-.69.92-.8,1.5-.55.58-1.15.25-1.71.06-1.53-.52-3.09-.87-4.71-.94-.71-.02-1.2-.44-1.68-.89-.68-.41-.35-.8-.05-1.3.76-1.28,1.96-2.13,3-3.11,3.65-3.43,7.07-7.1,10.76-10.48,2.37-2.18,4.72-4.38,6.99-6.65,2.81-2.82,5.78-5.47,8.48-8.4,1.03-1.12,2.23-2.21,3.43-3.23,1.93-1.65,3.67-3.52,5.49-5.3,2.3-2.25,4.51-4.59,7.13-6.47v10.73Z"/>
        <path class="cls-22" d="M118.33,53.08c1.3-2.05,3.19-3.57,4.91-5.21,2.29-2.18,4.51-4.44,6.84-6.58,2.48-2.28,4.75-4.76,7.21-7.06,3.89-3.63,7.58-7.48,11.55-11.03,2.97-2.66,5.69-5.61,8.52-8.42,2.62-2.6,5.08-5.42,7.95-7.73,2.16-1.74,3.59-4.16,5.95-5.64.5-.31.76-.87,1-1.4h7.25c.4.72-.06,1.18-.49,1.65-1.02,1.1-2.3,1.91-3.32,3.01-3.6,3.86-7.59,7.32-11.33,11.03-3.58,3.56-7.36,6.92-10.89,10.52-1.88,1.92-3.89,3.71-5.75,5.66-2.38,2.49-4.88,4.91-7.5,7.17-.95.82-1.82,1.74-2.67,2.65-2.79,2.97-5.99,5.52-8.75,8.52-.9.98-1.96,1.83-2.7,2.97-.14.21-.39.27-.64.3-1.9.05-3.8.02-5.7.02-.51,0-1.07.08-1.43-.44Z"/>
        <path class="cls-22" d="M125.87,53.08c0-1.1.82-1.86,1.49-2.37,3.1-2.33,5.64-5.27,8.37-7.94,4.22-4.12,8.54-8.15,12.72-12.32,2.99-2.98,5.97-5.99,9.1-8.85,2.26-2.06,4.5-4.2,6.63-6.42.93-.97,1.84-1.98,2.89-2.81,2.27-1.79,4.36-3.85,6.25-5.94,2-2.21,4.68-3.75,6.19-6.4h1.45c-.46,1.3-1.58,2.07-2.54,2.89-1.36,1.17-2.64,2.38-3.77,3.78-.9,1.11-2.19,1.82-3.22,2.84-2.07,2.07-4.23,4.07-6.27,6.17-3.5,3.62-7.25,6.99-10.82,10.54-4.28,4.26-8.67,8.43-13,12.64-4.32,4.2-8.7,8.33-13.05,12.49-.49.47-1.02.92-.98,1.69-.48.49-.97.49-1.45,0Z"/>
        <path class="cls-27" d="M296.92,60.63l.07-1.22c.11-.11.19-.1.24.05v2.61c-.35-.43-.26-.95-.32-1.45Z"/>
        <path class="cls-35" d="M297.24,237.8c-.49-.77-.36-1.55,0-2.32v2.32Z"/>
        <path class="cls-43" d="M237.8.03c-.77.48-1.55.4-2.32,0h2.32Z"/>
        <path class="cls-34" d="M61.79.03c-.77.39-1.55.46-2.32,0h2.32Z"/>
        <path class="cls-39" d="M297.24,59.47c-.08-.03-.16-.05-.24-.05.07-.56-.35-1.2.24-1.69v1.74Z"/>
        <path class="cls-31" d="M200.39,296.9c-7.34.02-14.69.04-22.03.04-6.09,0-12.18-.03-18.26-.04-.4-.83.09-1.43.63-1.9,3.73-3.27,7.04-6.96,10.72-10.29,2.17-1.96,4.18-4.12,6.29-6.15,2.07-1.99,3.98-4.16,6.21-5.99.97-.8,1.71-1.82,2.62-2.68,4.43-4.2,8.84-8.42,13.23-12.67,2.52-2.44,5.07-4.86,7.51-7.37.92-.94,1.94-1.81,3.19-2.33,12.77-.03,25.54,0,38.31,0,.6,0,1.28-.16,1.75.43-2.37,2.66-4.76,5.29-7.58,7.52-1.99,1.57-3.44,3.7-5.38,5.34-2.15,1.82-3.98,3.99-6.02,5.94-1.68,1.61-3.19,3.46-5.06,4.87-2.31,1.76-3.59,4.57-6.3,5.89-.73.36-.62,1.4-1.36,1.82-2.63,1.49-4.36,4.02-6.7,5.85-1.32,1.03-2.19,2.53-3.46,3.66-2.35,2.1-4.58,4.35-6.81,6.58-.5.5-1.37.62-1.5,1.48Z"/>
        <path class="cls-18" d="M250.56,247.95c-13.53,0-27.06,0-40.59,0-.78.76-1.78.65-2.74.65-10.72,0-21.45,0-32.17,0-3.42,0-3.46-.04-5.9,2.39-4.19,4.19-8.44,8.31-12.68,12.45-4.47,4.37-9.04,8.65-13.55,12.99-2.42,2.33-4.88,4.63-7.16,7.11-1.51,1.64-3.14,3.25-4.86,4.71-1.95,1.66-3.65,3.57-5.5,5.33-1.36,1.29-2.59,2.74-4.47,3.31-9.57,0-19.14,0-28.71,0-.61-1.04.36-1.51.85-2.03,2.35-2.52,5.08-4.65,7.37-7.24.7-.8,1.69-1.3,2.39-2.09,2.52-2.85,5.36-5.39,8.11-7.99,4.35-4.1,8.49-8.41,12.85-12.5,2.42-2.27,4.8-4.59,7.13-6.96,2.89-2.95,5.94-5.75,8.87-8.66,1.46-1.45,3.12-2.7,4.46-4.3.71-.84,1.78-.84,2.81-.85,2.97,2.23,6.35,2.77,9.98,2.73,9.61-.1,19.22-.03,28.84-.04,1.86,0,3.74.43,5.59-.13.62.13,1.25.13,1.88.13,7.24,0,14.48,0,21.72,0,.63,0,1.26-.02,1.87-.15,1.65.53,3.32.18,4.99.17,10.06-.04,20.13-.03,30.19,0,.86,0,1.88-.29,2.5.69-1.33.53-2.71.14-4.07.26Z"/>
        <path class="cls-14" d="M254.62,247.68c-12.06,0-24.12-.01-36.18-.02-.53,0-1.06-.03-1.59-.05,0-.78.65-.91,1.16-1.07,3.39-1.05,5.87-3.13,7.41-6.34.19-.39.43-.75.82-.97.26-.13.67-.06.8-.29,1.62-2.88,4.75-4.25,6.71-6.86,1.35-1.8,3.39-3.09,4.92-4.82,1.45-1.62,3.19-2.91,4.91-4.22,2.52-.02,5.03-.04,7.55-.06.29,0,.58,0,.87,0,.58-.18,1.15-.19,1.73,0,2.26-.05,4.33.67,6.38,1.51,1.78,1.33,3.44,2.75,4.6,4.73,1.52,2.6,1.62,5.41,1.51,8.28-1.06,4.13-3.24,7.36-7.27,9.15-1.38.62-2.83.92-4.33,1.03Z"/>
        <path class="cls-33" d="M120.94,296.9c.34-1.1,1.5-1.28,2.2-1.99,3.35-3.39,6.56-6.95,10.17-10.04,2.27-1.94,4.12-4.26,6.39-6.21,1.94-1.66,3.75-3.59,5.64-5.37,3.14-2.96,6.22-5.99,9.36-8.95,2.01-1.9,4.03-3.83,5.89-5.91,1.76-1.96,3.84-3.64,5.73-5.48,1.4-1.37,2.82-2.75,4.07-4.25.62-.74,1.28-.75,2.04-.75,12.51,0,25.02,0,37.53,0-.19,1.04-1.19,1.33-1.82,1.96-3.61,3.58-7.13,7.28-10.88,10.71-3.04,2.79-5.83,5.84-9.05,8.46-1.69,1.38-3.08,3.15-4.67,4.68-1.83,1.75-3.68,3.5-5.42,5.33-3.41,3.6-7.22,6.78-10.62,10.39-2.39,2.54-5.18,4.7-7.42,7.41-7.66.02-15.31.04-22.97.04-5.39,0-10.79-.03-16.18-.04Z"/>
        <path class="cls-19" d="M55.41,296.37c-4.94-.37-9.66-1.71-14.28-3.4-1.17-.43-2.37-.78-3.43-1.48-.51-.98.17-1.55.78-2.09,2.59-2.31,5.05-4.74,7.55-7.14,2.63-2.53,5.25-5.1,7.87-7.65,2.05-2,4.29-3.85,6.08-6.12.52-.65,1.24-1.07,1.84-1.63,3.38-3.13,6.75-6.29,10-9.54,2.69-2.68,5.46-5.28,8.12-7.99,1.68-1.7,3.48-3.31,5.14-5.04,2-2.08,4.21-3.93,6.24-5.98,2.31-2.32,4.7-4.56,7.05-6.85,2.96-2.89,6.02-5.69,8.89-8.66,2.13-2.21,4.52-4.17,6.49-6.55.79-.95,1.94-1.62,2.99-2.35,6.94-.03,13.88-.05,20.81,0,1.01.65,1.18,1.6.15,2.38-1.71,1.29-3.07,2.92-4.68,4.29-1.18,1-2.34,2.01-3.25,3.27-1.03,1.42-2.6,2.26-3.82,3.51-2.87,2.95-5.87,5.79-8.77,8.71-2.01,2.02-4.21,3.84-6.11,6-1.58,1.79-3.5,3.38-5.25,5.08-2.43,2.36-4.85,4.75-7.35,7.03-2.23,2.03-4.01,4.51-6.47,6.32-.96.71-1.85,1.64-2.54,2.71-.89,1.39-2.46,2.12-3.58,3.32-1.33,1.41-2.92,2.59-4.13,4.12-.74.93-1.82,1.4-2.7,2.15-2.31,1.95-4.4,4.14-6.48,6.3-1.88,1.96-3.98,3.71-5.78,5.77-1.02,1.17-2.28,2.18-3.36,3.33-1.21,1.28-2.8,2.19-3.74,3.73-.15.24-.36.46-.6.62-1.48,1.03-2.7,2.3-3.67,3.81Z"/>
        <path class="cls-30" d="M146.58,244.7c-1.03.21-1.74.8-2.47,1.58-1.87,2-3.94,3.82-5.91,5.72-3.19,3.08-6.37,6.16-9.54,9.25-4.59,4.47-9.05,9.08-13.78,13.4-3.09,2.83-6,5.84-9.01,8.74-2.02,1.95-4.32,3.66-6.01,5.99-.8,1.1-2.16,1.78-3.09,2.8-1.46,1.62-3.24,2.93-4.53,4.71-7.06,0-14.11,0-21.17,0-.53-.69-.07-1.19.36-1.64,2.25-2.31,4.62-4.52,6.87-6.83,1.24-1.27,2.63-2.41,3.86-3.69,3-3.13,6.19-6.09,9.33-9.07,2.32-2.21,4.42-4.64,6.9-6.72,2.33-1.95,4.44-4.26,6.64-6.41,1.82-1.77,3.8-3.45,5.51-5.28,3.56-3.79,7.57-7.09,11.08-10.92,1.65-1.8,3.56-3.4,5.29-5.15,1.92-1.95,3.94-3.81,5.89-5.73,2.05-2.03,4.24-3.93,6.25-6,4.56-4.71,9.62-8.89,14.15-13.63.76-.8,1.59-1.65,2.76-1.94,6.37.01,12.74-.07,19.11.04.96.76,1.06,1.27.18,2.19-1.49,1.56-3.23,2.87-4.7,4.45-.94,1.02-2,1.89-3.22,2.55-2.32.07-4.64.06-6.96.02-2.18-.03-4.34.06-6.48.48-4.65.31-8.05,2.59-9.9,6.83-1.79,4.1-1.18,8.08,1.33,11.79.52.76,1.46,1.32,1.26,2.46Z"/>
        <path class="cls-29" d="M155.45,214.36c-.73,1.34-1.99,2.24-3.05,3.23-2.02,1.86-3.93,3.83-5.95,5.69-2.46,2.26-4.91,4.56-7.24,6.97-2.97,3.07-6.19,5.88-9.25,8.86-3.55,3.45-6.97,7.05-10.58,10.43-2.21,2.06-4.41,4.16-6.53,6.29-1.94,1.95-4.08,3.72-5.92,5.8-1.96,2.22-4.35,4.06-6.38,6.23-2.07,2.19-4.44,4.03-6.47,6.3-1.69,1.9-3.56,3.77-5.55,5.42-2.05,1.7-3.8,3.69-5.72,5.52-3.68,3.51-7.3,7.08-10.94,10.63-.35.34-.71.66-.8,1.18-2.71,0-5.42,0-8.13,0-1.37-.29-2.77.11-4.14-.21-.55-.02-1.11-.05-1.66-.07-.48-.23-1.03.05-1.51-.22l-.12.03-.11-.06c-.74-1.73.89-2.32,1.7-3.08,2.53-2.38,4.88-4.95,7.45-7.27,1.97-1.78,3.57-3.93,5.78-5.49,1.01-.71,1.62-1.94,2.61-2.8,2.61-2.28,4.87-4.92,7.67-7.04,1.22-.92,2.53-2.09,3.4-3.53.57-.94,1.63-1.54,2.46-2.13,2.41-1.72,3.76-4.46,6.3-6.04,1.03-.64,1.75-1.82,2.55-2.81.31-.38.58-.75.99-1.03,1.67-1.12,2.94-2.64,4.18-4.2.09-.11.18-.24.3-.31,2.54-1.52,4.39-3.83,6.42-5.88,1.84-1.87,4.27-3.24,5.48-5.72.04-.08.12-.16.19-.21,3.79-2.77,6.75-6.42,10.18-9.56,1.75-1.61,3.43-3.33,5.16-4.95,2.05-1.92,4.13-3.87,6.05-5.95.65-.7,1.36-1.39,2.16-1.9.84-.53,1.37-1.18,1.6-2.12.39-.59,1.01-.47,1.57-.47,4.75-.01,9.5-.01,14.25,0,.56,0,1.18-.11,1.57.47Z"/>
        <path class="cls-6" d="M2.03,248.29c-1.1-3.57-1.45-7.27-1.62-10.96-.17-3.9-.05-7.81-.05-11.71,1.25-2.04,3.03-3.59,4.74-5.21,4.79-4.54,9.67-8.99,14.25-13.74,2.24-2.33,4.88-4.27,7.06-6.63,2.42-2.62,5.23-4.83,7.49-7.59.77-.94,1.87-1.53,2.67-2.43,2.88-3.24,6.38-5.86,9.32-9.04.36-.4.74-.78,1.35-.72,7.58,0,15.15-.04,22.72.02.96.21.94.85.6,1.54-.3.61-.74,1.12-1.24,1.59-2.5,2.33-4.99,4.68-7.46,7.04-2.28,2.19-4.31,4.64-6.81,6.64-1.56,1.24-2.81,2.89-4.37,4.2-2.66,2.23-4.98,4.82-7.46,7.23-2.69,2.62-5.33,5.31-8.05,7.91-4.07,3.9-8.07,7.87-12.16,11.75-4.96,4.7-9.93,9.39-14.7,14.3-1.81,1.86-3.94,3.4-5.54,5.47-.18.24-.45.36-.76.36Z"/>
        <path class="cls-9" d="M155.45,214.36c-5.8,0-11.6,0-17.39,0-7.25,0-14.5,0-21.75,0-.58.66-1.38.62-2.14.63-5.06.01-10.11.05-15.17,0-1.95-.07-3.9.08-5.85.02-.81-.02-1.62.04-2.43-.11-3.32.12-6.64-.02-9.96.15-1.14.06-1.9,1.01-2.56,1.77-1.76,1.98-3.72,3.75-5.62,5.57-2.92,2.79-5.83,5.61-8.67,8.47-3.18,3.21-6.52,6.26-9.75,9.42-4.02,3.94-8.16,7.76-12.18,11.71-3.19,3.13-6.29,6.36-9.55,9.39-4.55,4.24-8.85,8.74-13.48,12.88-.76.68-1.11,1.89-2.41,1.89-3.77-4-6.87-8.46-9.24-13.42-.36-.75-.04-1.3.57-1.71,1.54-1.03,2.6-2.61,3.98-3.75,2.43-2,4.15-4.7,6.77-6.46.74-.5,1.1-1.33,1.74-1.92,2.13-1.96,4.32-3.86,6.38-5.88,2.03-1.99,4-4.05,6.09-5.97,4.34-3.97,8.36-8.25,12.68-12.24,2.33-2.16,4.56-4.43,6.82-6.67,2.63-2.61,5.21-5.28,8.07-7.65.53-.44.87-1.03,1.32-1.53.49-.55,1.02-.87,1.78-.63.74.41,1.15,1.15,1.75,1.71,2.28,2.13,4.93,3.34,8.09,3.34,10.34,0,20.67,0,31.01,0,1.91,0,3.83.42,5.73-.12.86.15,1.73.11,2.6.11,21.59,0,43.19,0,64.78,0,.87,0,1.74.04,2.6-.14,2.83.61,5.68-.06,8.51.12.9.43,1.81.03,2.71.03,8.15,0,16.3-.02,24.45.02.74,0,1.59-.16,2.08.68-.51.36-1.1.27-1.67.27-3.6,0-7.2,0-10.8,0-.73.54-1.56.67-2.45.68-8.42,0-16.84.01-25.27-.01-.76,0-1.56.05-2.14-.62-6.67,0-13.34,0-20.01,0Z"/>
        <path class="cls-15" d="M98.91,214.33c5.8,0,11.6.02,17.4.03-.01.52-.19.96-.63,1.24-1.74,1.11-2.77,2.95-4.3,4.22-1.61,1.33-2.94,2.89-4.43,4.31-3.1,2.95-6.21,5.89-9.21,8.94-2.43,2.47-4.93,4.87-7.43,7.25-2.26,2.14-4.5,4.33-6.75,6.48-2.04,1.94-3.99,4.02-6.1,5.87-2.21,1.93-4.1,4.16-6.23,6.16-2.25,2.12-4.8,3.98-6.63,6.53-.36.5-.96.63-1.37,1.04-2.62,2.65-5.4,5.15-7.94,7.89-1.5,1.62-3.2,3.04-4.75,4.62-3.09,3.15-6.32,6.18-9.47,9.27-1.12,1.1-2.72,1.72-3.35,3.32-4.06-1.62-7.79-3.82-11.28-6.44-.21-1.23.77-1.83,1.46-2.47,2.83-2.61,5.45-5.44,8.29-8.03,2.95-2.69,5.83-5.47,8.57-8.35,2.56-2.68,5.44-5.01,7.97-7.72,2.11-2.26,4.47-4.34,6.69-6.51,2.92-2.85,5.93-5.63,8.84-8.49,2.84-2.79,5.65-5.64,8.63-8.3,3.25-2.9,6.37-5.98,9.38-9.13,2.23-2.32,4.61-4.49,6.85-6.79,1.75-1.79,3.39-3.84,5.78-4.93Z"/>
        <path class="cls-16" d="M.37,146.75c0-6.28,0-12.56,0-18.85,1.25-2.36,3.43-3.88,5.27-5.69,4.28-4.23,8.67-8.35,13-12.54,4.04-3.92,8.06-7.86,12.12-11.76,3.46-3.33,6.93-6.66,10.37-10,2.9-2.81,5.9-5.5,8.75-8.36.67-.67.83-1.78,1.89-2.1,6.29-.16,12.58-.21,18.86.02.98.81,1.08,1.35.23,2.21-2.12,2.16-4.35,4.22-6.48,6.37-2.54,2.56-5.19,5-7.72,7.57-2.09,2.12-4.27,4.17-6.42,6.24-3.85,3.71-7.65,7.47-11.52,11.16-1.49,1.42-2.79,3.05-4.55,4.19-.95.61-1.48,1.64-2.27,2.42-3.4,3.38-6.85,6.71-10.22,10.12-1.81,1.83-3.88,3.46-5.7,5.28-2.11,2.1-4.34,4.09-6.39,6.26-2.38,2.51-4.93,4.87-7.57,7.13-.47.4-.98.86-1.65.33Z"/>
        <path class="cls-24" d="M51.35,78.03c-.34,2.13-2.2,3.1-3.53,4.4-1.75,1.71-3.61,3.29-5.3,5.08-1.98,2.09-4.21,3.94-6.3,5.93-1.87,1.79-3.68,3.64-5.53,5.44-2.04,1.98-4.09,3.94-6.14,5.91-.31.3-.67.56-.96.87-5.17,5.45-10.8,10.43-16.18,15.67-1.89,1.85-3.86,3.63-5.66,5.57-.39.42-.76.89-1.38,1,0-8.31,0-16.62,0-24.94.46-.08.77-.38,1.08-.69,2.66-2.65,5.2-5.43,8.01-7.91,2.04-1.8,3.81-3.84,5.85-5.64,1.82-1.61,3.42-3.5,5.26-5.12,2.65-2.32,4.8-5.16,7.63-7.31,1.33-1.01,2.43-2.31,3.63-3.49,2.26-2.23,4.51-4.48,6.76-6.71.32-.32.73-.46,1.17-.54.84.39.65,1.24.81,1.9.87,3.46,2.53,6.34,5.7,8.19,1.19.69,2.46,1.1,3.78,1.42.58.14,1.14.27,1.3.96Z"/>
        <path class="cls-23" d="M.37,189.08v-9.28c1.38-2.05,3.18-3.72,4.97-5.39,2.43-2.27,4.88-4.51,7.14-6.95,1.22-1.32,2.69-2.36,3.92-3.65,2.82-2.96,5.81-5.75,8.73-8.59,2.9-2.81,5.87-5.55,8.72-8.41,2.21-2.21,4.59-4.24,6.77-6.49,1.67-1.72,3.55-3.26,5.19-5.03,1.86-2.02,4.18-3.57,5.83-5.8.67-.9,1.67-1.46,2.45-2.25,3.06-3.07,6.17-6.09,9.28-9.1,2.04-1.97,3.97-4.06,6.12-5.92,2.18-1.89,4.12-4.05,6.22-6.03,2.83-2.67,5.45-5.59,8.36-8.15,2.31-2.03,4.17-4.49,6.65-6.35,1.88-1.41,3.24-3.41,5.04-4.96,3.18-2.73,5.88-5.97,9.15-8.6.35-.28.64-.58,1.13-.56,3.31.01,6.62-.07,9.92.04.86.31.84.95.58,1.63-.26.69-.79,1.16-1.33,1.65-2.19,1.97-4.34,3.98-6.37,6.12-.7.44-1.49.31-2.25.33-1.83.05-3.65-.02-5.48.29-5.15.87-9.28,5.6-9.38,10.8-.03,1.35.15,2.68.14,4.03-.95,1.94-2.76,3.13-4.13,4.7-1.93,2.22-4.45,3.83-6.24,6.18-.39.51-.94.81-1.42,1.21-2.25,1.88-4.03,4.24-6.3,6.1-.78.46-1.68.35-2.52.52-5.25,1.06-8.7,4.64-9.47,9.9-.05.44-.24.83-.48,1.2-2.67,3.09-5.64,5.87-8.58,8.7-2.42,2.33-4.87,4.62-7.21,7.04-2.27,2.34-4.67,4.55-7.03,6.79-.39.37-.62.84-.98,1.21-1.11.53-2.35.36-3.52.6-4.85,1-8.6,4.95-9.24,9.87-.07.57-.07,1.17-.63,1.54-1.7.61-2.82,2.02-3.98,3.22-2.56,2.62-5.25,5.09-7.85,7.65-3.39,3.35-6.93,6.57-10.39,9.85-.42.4-.91.77-1.53.28Z"/>
        <path class="cls-21" d="M.37,164.44c0-3.77,0-7.54,0-11.31,2.38-2.84,5.05-5.37,7.93-7.68.5-.4.79-.97,1.23-1.42,2.82-2.82,5.8-5.47,8.58-8.31,2.04-2.08,4.39-3.86,6.13-6.25.68-.93,1.6-1.69,2.47-2.39,1.63-1.31,2.82-3.05,4.38-4.32,2.1-1.71,3.83-3.78,5.9-5.49,1.08-.9,2.01-1.92,2.95-2.96,1.74-1.93,3.9-3.45,5.62-5.41,1.84-2.09,4.32-3.53,5.95-5.84.53-.75,1.33-1.26,2.03-1.84,3.17-2.6,5.83-5.71,8.84-8.46,1.97-1.8,3.56-3.98,5.6-5.62,3.3-2.66,5.7-6.25,9.26-8.61.43-.28.53-.95,1.14-1.06,3.42-.31,6.82-.04,10.22.16.96.65,1.06,1.16.38,2.06-.71.94-1.74,1.52-2.56,2.34-2.59,2.58-5.17,5.17-7.77,7.74-3.15,3.11-6.49,6.03-9.65,9.13-4.51,4.4-9.04,8.78-13.56,13.17-2.83,2.74-5.79,5.38-8.56,8.17-3.74,3.76-7.62,7.37-11.36,11.13-1.72,1.73-3.56,3.38-5.28,5.1-2,2-4.23,3.78-6.06,5.96-.98,1.17-2.07,2.28-3.38,3.13-1.11.72-1.75,1.91-2.71,2.8-1.97,1.82-3.85,3.74-5.82,5.56-1.84,1.71-3.48,3.62-5.35,5.29-1.65,1.48-3.17,3.09-4.71,4.69-.48.5-1,1.15-1.85.56Z"/>
        <path class="cls-22" d="M.37,164.44c.62-.11.98-.6,1.38-1,3-2.99,5.97-6.01,8.99-8.98,2.5-2.46,5.04-4.86,7.56-7.29,3.24-3.12,6.5-6.21,9.71-9.36,3.01-2.94,5.89-6.03,8.98-8.88,2.02-1.86,4.01-3.77,5.94-5.7,2.35-2.34,4.76-4.63,7.13-6.95,3.78-3.7,7.64-7.31,11.48-10.95.73-.69,1.37-1.47,2.1-2.17,2.99-2.84,5.97-5.69,8.98-8.51,3.54-3.31,7.03-6.69,10.4-10.17,1.48-1.52,3.01-2.96,4.59-4.35.63-.56,1.43-1.06,1.41-2.08.35-.54.92-.45,1.43-.45,2.54,0,5.08-.05,7.62.03.81.16.82.7.6,1.32-.22.6-.59,1.13-1.08,1.52-2.11,1.68-3.87,3.73-5.86,5.55-2.98,2.73-5.9,5.54-8.74,8.42-3.01,3.05-6.13,5.99-9.24,8.94-2.47,2.35-4.93,4.72-7.35,7.12-2.15,2.13-4.42,4.15-6.42,6.45-1.06,1.22-2.46,2.15-3.57,3.35-3.05,3.28-6.54,6.09-9.67,9.29-2.89,2.95-5.96,5.75-8.94,8.62-4.62,4.44-9.23,8.89-13.79,13.4-2.26,2.23-4.49,4.49-6.79,6.69-3.65,3.48-7.41,6.86-10.89,10.51-1.17,1.22-2.37,2.4-3.63,3.52-.61.55-1.25,1.49-2.35.82,0-2.9,0-5.8,0-8.7Z"/>
        <path class="cls-2" d="M46.72,180.74c-1.9,2.46-4.36,4.35-6.52,6.53-2.06,2.08-4.29,3.99-6.23,6.2-1.33,1.51-2.96,2.74-4.36,4.19-5.75,5.91-11.82,11.49-17.7,17.26-2.83,2.78-5.58,5.69-8.74,8.16-.99.77-1.27,2.33-2.8,2.54,0-7.83,0-15.65,0-23.48,2.3-1.84,4.22-4.11,6.48-5.96,2.28-1.87,3.89-4.4,6.34-6.06.82-.56,1.28-1.45,1.99-2.1,2.87-2.63,5.58-5.44,8.48-8.03.68-.61,1.32-1.27,1.93-1.96.57-.63,1.08-1.4,2.07-1.44,1.12.12,1.77,1.07,2.68,1.57,1.66.92,3.36,1.56,5.27,1.62,3.12.66,6.28.42,9.43.47.59,0,1.27-.18,1.68.49Z"/>
        <path class="cls-10" d="M16.53,276.14c1.05-1.78,2.76-2.94,4.17-4.37,3.52-3.56,7.2-6.96,10.78-10.46,2.54-2.48,5.11-4.94,7.57-7.49,2.44-2.53,5.04-4.9,7.57-7.34,1.73-1.67,3.5-3.3,5.22-4.98,2.37-2.32,4.77-4.6,7.21-6.84,2.26-2.07,4.27-4.42,6.51-6.51,1.86-1.74,3.65-3.55,5.48-5.32,2.13-2.06,4.34-4.04,6.36-6.22,1.27-1.37,2.62-2.54,4.83-2.35,2.64.23,5.31.06,7.97.07.32.32.4.75.1,1.04-.64.6-.97,1.44-1.61,2.02-1.63,1.49-3.23,3-4.76,4.57-1.63,1.67-3.3,3.3-5.03,4.84-2.14,1.91-4.08,4.02-6.22,5.94-2.1,1.88-4.11,3.91-6.09,5.95-2.57,2.65-5.44,5-7.95,7.7-2.45,2.65-5.33,4.83-7.79,7.47-.77.82-1.27,2-2.62,2.1-.54-.02-.96-.32-1.37-.62.36.27.82.47.81,1.04-.73,1.86-2.29,3.01-3.69,4.29-.31.23-.6.48-.82.8-2.18,2.44-4.76,4.47-6.93,6.93-.33.37-.76.59-1.27.61-.28-.03-.61-.15-.6.35-.7,1.84-2.32,2.8-3.73,3.96-.33,0-.75.1-.96-.15-.83-.95-1.51-.34-2.22.15,1.44-.81,1.68-.75,2.22.51-.86,1.62-1.98,3-3.7,3.79-1.33-.83-2.23-.2-3.19.78-.67.69-.53,1.35-.42,2.09-.05.39-.21.71-.61.85-1.91-1.57-3.69-3.26-5.24-5.19Z"/>
        <path class="cls-22" d="M.37,173.14c1.85-.83,3.13-2.39,4.53-3.76,1.52-1.48,2.86-3.13,4.58-4.41,1.09-.81,1.79-1.99,2.81-2.89,2.48-2.18,4.84-4.5,7.2-6.82,2.99-2.94,5.83-6.04,8.93-8.86,4.4-4.02,8.45-8.4,12.93-12.36,2.93-2.59,5.53-5.63,8.42-8.31,2.18-2.02,4.3-4.1,6.47-6.14,2.94-2.76,5.66-5.75,8.64-8.46,2.21-2.01,4.22-4.2,6.44-6.19,1.92-1.73,3.68-3.67,5.63-5.39,2.34-2.07,4.4-4.42,6.69-6.56,1.82-1.7,3.52-3.54,5.38-5.23,2.77-2.52,5.45-5.13,8.14-7.74.58-.56.99-1.3,1.48-1.95.23-.37.6-.44.99-.45,1.66-.04,3.32-.04,4.98,0,.39,0,.76.08.99.45-1.22,1.44-2.67,2.64-4,3.96-1.67,1.66-3.26,3.42-5.08,4.92-2.37,1.96-4.1,4.6-6.72,6.3-.88.57-1.33,1.61-2.1,2.36-2.99,2.9-6.05,5.72-8.96,8.71-1.56,1.61-3.14,3.28-4.99,4.61-1.39,1-2.24,2.5-3.49,3.66-4.05,3.76-8.01,7.62-11.99,11.46-3.25,3.14-6.59,6.2-9.7,9.47-2.72,2.86-5.61,5.54-8.43,8.29-2.5,2.45-5.16,4.75-7.59,7.28-3.06,3.19-6.39,6.09-9.54,9.19-2.65,2.62-5.28,5.29-8.07,7.8-2.82,2.53-5.35,5.42-8.18,7.95-1.73,1.55-3.1,3.44-4.94,4.85-.45.35-.82.83-1.44.94,0-2.22,0-4.45,0-6.67Z"/>
        <path class="cls-7" d="M63,208.49c-3.86,4.3-8.28,8.02-12.33,12.12-5.01,5.06-10.14,10.01-15.29,14.92-4.34,4.14-8.62,8.36-13.05,12.43-2.49,2.28-4.85,4.79-7.28,7.15-2.25,2.19-4.16,4.83-6.94,6.48-.43.26-.76.6-.84,1.12-1.55-2.62-2.74-5.38-3.52-8.33.13-1.22,1.16-1.81,1.9-2.55,1.74-1.73,3.49-3.47,5.33-5.08,2.97-2.6,5.36-5.82,8.62-8.11.7-.5,1.24-1.22,1.76-1.91.7-.94,1.49-1.78,2.5-2.38,1.06-.64,1.69-1.71,2.57-2.52,3.46-3.21,6.86-6.49,10.16-9.85,2.59-2.64,5.29-5.18,7.89-7.82,2.76-2.81,5.76-5.4,8.59-8.16,1.86-1.82,3.74-3.62,5.61-5.42.64-.62,1.35-1.53,2.48-.73.23.48.42.97.51,1.5.04.15.05.3.04.45-.05.57.02,1.14.12,1.7.2,1.24.67,2.39,1.14,3.54.2.49.48.96.02,1.45Z"/>
        <path class="cls-7" d="M60.92,199.81c-2.54,1.55-4.37,3.88-6.51,5.86-2.97,2.74-5.85,5.58-8.82,8.33-1.93,1.79-3.77,3.71-5.65,5.56-2.61,2.55-5.28,5.04-7.79,7.69-1.91,2.02-4.16,3.7-5.92,5.87-.39.48-.82.99-1.34,1.31-1.33.83-2.42,1.88-3.36,3.14-1.3,1.75-3.26,2.83-4.75,4.4-1.92,2.02-3.91,3.96-5.9,5.91-1.48,1.45-2.98,2.88-4.54,4.24-.86.75-1.44,1.83-2.58,2.27-.81-1.97-1.49-3.97-1.73-6.09.48-1.69,1.87-2.71,3.07-3.75,2.56-2.21,4.77-4.77,7.25-7.05,3.12-2.86,6.03-5.94,9.22-8.73,2.67-2.34,5-5.06,7.61-7.47,4.09-3.8,8.01-7.78,12.03-11.65,1.92-1.85,4.03-3.56,5.67-5.73.6-.79,1.48-1.37,2.26-2.02,2.61-2.2,4.99-4.67,7.41-7.06,1.9-1.87,3.85-3.73,5.69-5.69,2.01-2.14,4.22-4.09,6.41-6.06.77-.69,1.41-1.42,1.85-2.35.28-.52.78-.49,1.25-.49,2.53,0,5.06-.06,7.59.03,1.03.36.81,1.05.37,1.7-.37.56-.91.97-1.44,1.39-1.88,1.47-3.39,3.35-5.21,4.9-.39.33-.68.8-.85,1.31-.35.44-.84.59-1.37.7-4.25.91-7.06,3.47-8.57,7.52-.26.7-.26,1.54-.93,2.06-.15.07-.28.05-.41-.06Z"/>
        <path class="cls-10" d="M30.48,272.88c1.04-1.37,2.61-2.25,3.48-3.77.15-.4.58-.39.87-.58,1.24-.29,1.76-1.49,2.52-2.27,1.73-1.8,3.78-3.28,5.31-5.27.22-.36.51-.65.87-.87,1.5-1.01,2.48-2.54,3.77-3.77.2-.38.49-.67.87-.87.63-.28,1.09-.74,1.54-1.26,1.96-2.25,4.09-4.34,6.46-6.16.87-.67,1.35-1.6,2.13-2.33,3.67-3.45,7.22-7.03,10.87-10.49,2.26-2.14,4.55-4.25,6.74-6.44,1.15-1.15,2.29-2.55,3.49-3.49,2.2-1.71,3.73-4.05,6.01-5.65,1.33-.93,2.39-2.32,3.38-3.64.45-.6,1.47-.7,1.43-1.68,2.9,0,5.8,0,8.7,0-.77,1.68-2.38,2.64-3.64,3.83-1.29,1.22-2.37,2.66-3.79,3.73-2.36,1.76-4.13,4.12-6.27,6.11-2.23,2.08-4.4,4.25-6.57,6.41-3.14,3.11-6.54,5.98-9.59,9.17-3.1,3.24-6.42,6.24-9.64,9.34-1.96,1.88-4.03,3.72-5.84,5.7-2.51,2.73-5.67,4.78-7.89,7.79-.39.53-1.02.88-1.5,1.35-4.51,4.32-9.03,8.64-13.52,12.99-1.45,1.4-2.82,2.87-4.23,4.31-1.7-1.05-3.24-2.3-4.65-3.72.01-.33.07-.65.3-.91.81-1.6,2.18-2.53,3.77-3.19,1.16-1.16,2.32-2.32,3.48-3.48.19-.56.7-.68,1.16-.87Z"/>
        <path class="cls-21" d="M78.03,78.05c-.08.44-.27.81-.61,1.12-1.72,1.59-3.49,3.12-5.13,4.82-3.52,3.65-7.38,6.98-10.9,10.64-1.9,1.97-4.09,3.64-5.75,5.85-.51.69-1.44.92-2.08,1.54-3.41,3.37-6.86,6.7-10.3,10.04-3.27,3.18-6.34,6.62-9.8,9.55-2.22,1.88-4.15,4.05-6.26,5.99-2.7,2.48-5.5,4.97-7.78,7.93-.75.97-1.86,1.66-2.81,2.48-.29.25-.66.44-.88.74-1.89,2.5-4.41,4.4-6.58,6.62-1.9,1.95-3.78,4.05-6.11,5.6-.31.2-.58.53-.75.86-.41.82-1.01,1.27-1.93,1.3,0-2.13,0-4.25,0-6.38,2.24-1.07,3.58-3.17,5.39-4.73,4.15-3.58,7.73-7.77,11.88-11.37,3.36-2.91,6.56-6.03,9.55-9.31,1.91-2.09,4.02-3.96,5.97-5.99,1.91-1.98,3.98-3.87,6.06-5.7,1.44-1.27,2.72-2.73,4.13-4.04,4.19-3.9,8.23-7.95,12.32-11.95,2.54-2.47,5.16-4.89,7.59-7.5,1.72-1.84,3.61-3.59,5.51-5.29.89-.8,1.99-1.51,2.3-2.82.09-.17.2-.38.37-.42,2.07-.45,4.14-.45,6.21,0,.18.04.28.25.37.42Z"/>
        <path class="cls-58" d="M48.46,1.82c.15.32.25.63-.07.92-3.27,3.04-6.3,6.33-9.64,9.29-2.26,2.01-4.2,4.37-6.52,6.31-2.55,2.14-4.87,4.53-7.18,6.86-3.91,3.94-8.08,7.6-11.94,11.59-2.72,2.82-5.44,5.68-8.46,8.21-.77.64-1.36,1.49-2.26,1.99,3.47-13.44,10.73-24.44,21.47-33.16,7.07-5.74,15.06-9.66,23.89-11.9.23-.06.47-.08.71-.11Z"/>
        <path class="cls-12" d="M27.48,176.91c-1.99,2.48-4.55,4.4-6.7,6.7-2.13,2.28-4.47,4.33-6.69,6.5-3.96,3.87-7.91,7.77-11.97,11.54-.52.48-.98.97-1.75.49,0-4.35,0-8.7,0-13.06.91-.17,1.27-1,1.85-1.55,3.78-3.57,7.56-7.13,11.28-10.76,3.02-2.95,6-5.96,9.19-8.74.35-.31.74-.98,1.16-.04.2.11.35.26.45.46.19.46.33.94.42,1.43.44,2.07,1.18,4.01,2.54,5.67.32.39.73.81.23,1.36Z"/>
        <path class="cls-19" d="M58.8,296.68c1.38.06,2.78-.27,4.14.21-1.38.01-2.78.16-4.14-.21Z"/>
        <path class="cls-19" d="M55.63,296.39c.52-.02,1.04-.09,1.51.22-.52.06-1.03.03-1.51-.22Z"/>
        <path class="cls-49" d="M226.51,239.54c-1.82,4.37-5.09,7-9.66,8.08-8.49,0-16.97,0-25.46,0-4.79-.23-7.74-3.08-9.48-7.16-1.91-4.48-1.34-8.86,1.55-12.89,2.21-3.08,5.34-4.44,8.95-4.98,7.73.4,15.47.25,23.21.29.15,0,.28.05.42.09.37.03.75.06,1.12.09,5.74.41,8.72,4,10.3,9.09.57,1.82.32,3.74.14,5.61-.07.71-.42,1.39-1.09,1.8Z"/>
        <path class="cls-11" d="M217.8,214.04c-9.76,0-19.53-.02-29.29-.03-.26-.52-.04-.95.32-1.3,1.14-1.11,2.04-2.43,3.29-3.45,1.27-1.03,2.4-2.21,3.44-3.5.87-1.08,2.23-1.66,3.15-2.74,3.02-3.57,6.78-6.42,9.91-9.88.61-.68,1.55-.99,2.05-1.81.37-.6.41-1-.47-1-.39,0-.77,0-1.16,0-7.68,0-15.36-.01-23.04.01-1.63,0-3.26-.37-4.89-.1-.34-.1-.61-.27-.73-.62.2-.09.39-.18.59-.27,2.32,0,4.64,0,6.96,0,5.03,0,10.05,0,15.08,0,4.29,0,8.59.03,12.88.02,4.75-.01,8.66,1.63,11.34,5.71.1.16.27.27.41.41,1.48,3.04,1.98,6.22,1.11,9.52-1.32,5.02-5.83,8.72-10.95,9.02Z"/>
        <path class="cls-18" d="M175.46,214.36c9.95-.01,19.91-.03,29.86-.04-1.13,1.73-2.46,3.28-4.03,4.65-1.24,1.07-2.78,1.93-3.21,3.72-.15.13-.33.17-.53.18-9.49.32-18.98.33-28.47.28-.52,0-1.08.07-1.44-.46,1.76-2.13,3.82-3.97,5.86-5.81.8-.72,1.84-1.26,1.97-2.52Z"/>
        <path class="cls-3" d="M226.51,239.54c1.45-5.23.51-9.83-3.6-13.59-1.65-1.51-3.67-2.27-5.75-2.91,8.81,0,17.62,0,26.43,0,.03.71-.38,1.2-.89,1.57-2.73,1.98-4.77,4.69-7.27,6.91-1.64,1.46-2.94,3.25-4.64,4.6-1.21.96-2.4,1.89-3.35,3.1-.17.21-.61.21-.93.31Z"/>
        <path class="cls-29" d="M167.64,222.69c10.15,0,20.3,0,30.45,0,5.38,0,10.75.02,16.13.03.62,0,1.25-.11,1.83.24-7.16,0-14.31,0-21.47.02-.86,0-1.73.04-2.59.06-2.9.53-5.81.7-8.75.68-9.06-.05-18.12,0-27.18-.04-.9,0-1.97.32-2.63-.71.58-.34,1.21-.23,1.83-.23,4.13-.02,8.26-.02,12.39-.03Z"/>
        <path class="cls-51" d="M78.03,78.05c-2.32,0-4.64,0-6.96,0-6.57,0-13.15-.01-19.72-.02-3.06-.48-5.85-1.53-8.02-3.85-2.26-2.42-3.53-5.27-3.59-8.62.02-2.38.62-4.62,1.93-6.6,2.39-3.61,5.76-5.58,10.12-5.78.24-.01.48-.06.72-.09,8.7,0,17.4,0,26.1,0,6.77,0,13.53,0,20.3,0,3.48,0,6.96,0,10.44,0,3,0,5.99,0,8.99,0,2.51,0,5.03,0,7.54,0,.48,0,.97,0,1.45,0,3.19,0,6.38,0,9.57,0,6.48,0,12.95,0,19.43,0,.44.01.89.03,1.33.04.18.13.19.28.05.45-.83.71-1.84.46-2.78.46-11.69.02-23.39.01-35.08.01-9.47,0-18.94.08-28.41-.03-5.26-.06-10.19,4.06-11.27,8.57-1.3,5.44,1.04,10.82,5.9,13.4,1.58.84,3.28,1.07,5.05,1.07,15.99-.01,31.99,0,47.98,0,5.56,0,11.11-.02,16.67.02.79,0,1.67-.19,2.31.55.1.18.1.36,0,.53-.4.53-1,.51-1.56.52-1.62.04-3.23.08-4.85-.01-6.71.08-13.42.04-20.12.04-.34,0-.68.06-1.01-.04-3.93.05-7.86.07-11.79.03-.85,0-1.76.13-2.41-.63-3.58,0-7.15,0-10.73,0-2.32,0-4.64,0-6.96,0-3.19,0-6.38,0-9.57-.01-3.67,0-7.35,0-11.02,0Z"/>
        <path class="cls-47" d="M180.37,189.62c.25.03.51.05.76.08,5.48.93,9.3,5.58,9.5,11.22.19,5.03-1.78,8.85-5.81,11.72-1.44,1.03-3.15,1.07-4.81,1.34-17.72.03-35.44.07-53.16.08-5.65,0-11.3-.05-16.94-.08-6.19-.9-10.13-5.6-10.25-11.93-.08-4.68,1.78-8.28,5.5-11.01,1.81-1.32,3.95-1.69,6.07-2.11,20.6-.01,41.2-.01,61.8.02,1.67,0,3.34.3,5.01.36.77.1,1.54.2,2.31.29Z"/>
        <path class="cls-13" d="M228.52,128.49c1.08,3.87.92,7.61-1.34,11.06-1.46,2.22-3.48,3.82-5.91,4.88-1.51.9-3.15,1.48-4.9,1.51-3.03.05-6.06.11-9.09-.06-5.38.2-10.76.04-16.14.09-1.06,0-2.11,0-3.17.04-2.09-.24-4.18.07-6.26-.05-.8-.05-1.63.14-2.35-.38-.14-.13-.21-.3-.22-.49.16-.5.59-.63,1.02-.77,6.63.04,13.27-.05,19.9.03,1.92.02,3.15-1.07,4.38-2.2,1.76-1.63,3.27-3.51,5.11-5.09,4.18-3.61,7.79-7.81,11.97-11.42,1-.87,1.66-2.16,3.12-2.43,1.64.18,3.92,2.8,3.85,4.43-.01.28-.2.56.04.82Z"/>
        <path class="cls-13" d="M189.62,175.73c-1.54,1.39-2.92,2.98-4.9,3.8-1.02.83-2.1,1.52-3.46,1.62-3.93-.61-7.87-.32-11.81-.13-.87.04-1.73.08-2.59-.1-.8-.37-.89-1.02-.5-1.68.51-.86,1.04-1.75,1.93-2.3.96-.59,1.84-1.29,2.47-2.2,1.23-1.78,3.08-2.9,4.53-4.43,2.58-2.74,5.43-5.19,8.06-7.87,1.32-1.35,2.67-2.65,4.23-3.71,1.7-.2,2.1,1.34,2.95,2.26.38.4.51,1.01.87,1.46,1.36,2.48,1.36,5.17,1.2,7.89-.05.87-.79,1.29-1.17,1.94l-.63,1.71c-.32.64-.41,1.43-1.18,1.77Z"/>
        <path class="cls-29" d="M191.43,172.25c1.08-3.36.64-6.62-.63-9.82-.16-.6.13-1,.55-1.37,3.81-3.31,7.2-7.05,10.87-10.5,1.79-1.68,3.54-3.38,5.12-5.26,3.7-.15,7.41.26,11.1-.28.95-.14,1.88-.38,2.82-.58-.05.08-.09.19-.16.24-2.48,1.43-4.36,3.64-6.13,5.7-2.01,2.35-4.73,3.82-6.58,6.34-1.4,1.9-3.67,3.13-5.22,4.94-1.81,2.11-4.42,3.32-5.95,5.72-.66,1.03-1.61,1.92-2.76,2.52-1.16.6-1.65,2.05-3.03,2.38Z"/>
        <path class="cls-20" d="M228.52,128.49c-.96-1.87-1.89-3.77-3.74-4.98-.54-.02-1.06-.11-1.5-.42-1.36-.96-2.92-1.42-4.52-1.8-.49-.09-.98-.1-1.47-.17-.66-.18-1.41,0-2.01-.43-.71-.99,0-1.7.63-2.2,2.58-2.07,4.65-4.66,7.07-6.88.23-.21.47-.32.76-.35,4.29-.07,8.59.09,12.88-.09,2.21-.09,4.42-.24,6.64-.16.65.02,1.39-.08,1.79.66-3.17,3.79-6.74,7.22-10.45,10.45-2.07,1.8-3.79,3.89-5.77,5.73-.16.15-.21.42-.31.63Z"/>
        <path class="cls-13" d="M245.05,111.67c-7.25,0-14.5,0-21.75,0-.56.55-1.27.65-2.01.66-3.38.02-6.75.04-10.13-.01-.61,0-1.28.04-1.74-.52-.22-.88.5-.9,1.01-1.12,2.24.46,4.5-.14,6.74.04,1,.33,2.01-.02,3.01-.01,4.77.03,9.55-.01,14.32.03,1.35.01,2.39-.45,3.36-1.37,3.01-2.84,5.94-5.77,8.98-8.57,1.83-1.69,3.46-3.61,5.51-5.08.92-.67,1.66-1.6,2.37-2.52.49-.63.97-1.37,1.95-1.28,1.23,1.1,1.57,2.71,2.26,4.11.35,2.21.48,4.4-.18,6.59-1.59,5.3-6.27,8.91-11.83,9.04-.63.02-1.26.02-1.88.02Z"/>
        <path class="cls-7" d="M178.06,189.32c-.58.01-1.16.04-1.73.04-21.22,0-42.44,0-63.66,0-.63,0-1.25.03-1.88.05-3.28.59-6.59.68-9.91.66-8.76-.05-17.53,0-26.29-.04-.91,0-1.97.31-2.64-.69.02-.89.51-1.52,1.14-2.09,2-1.8,3.98-3.62,5.97-5.43.32-.29.63-.61.72-1.06.2-.4.57-.5.96-.5,3.39.03,6.77-.18,10.15.11.88.7.37,1.31-.1,1.96-1.26,1.71-2.76,3.18-4.39,4.53-.36.3-.91.59-.72,1.13.19.58.82.4,1.27.4,5.93.02,11.86,0,17.79.02.58,0,1.16-.04,1.73.12,6.29-.24,12.57-.14,18.86-.07,1.53.17,3.06-.1,4.59-.08,4.46.08,8.92-.05,13.38.06,3.02-.04,6.04-.05,9.06-.05,3.46,0,6.92.02,10.38-.02.51.14,1.01.2,1.56.15,3.07-.25,6.15-.12,9.23-.08.54,0,1.06.1,1.38.63,1.06.11,2.15-.22,3.18.25Z"/>
        <path class="cls-29" d="M174.88,189.08c-4.06,0-8.12,0-12.18,0-.32-.67.09-1.1.51-1.51,1.49-1.5,2.94-3.02,4.58-4.36.22-.18.52-.32.64-.57.96-1.98,2.65-2.18,4.6-2.13,2.83.06,5.67.18,8.49-.08,1.07-.29,2.13-.59,3.2-.88-.92,1.56-2.47,2.51-3.73,3.74-1.37,1.34-2.89,2.53-4.01,4.1-.56.78-1.59.91-2.11,1.7Z"/>
        <path class="cls-29" d="M189.62,175.73c.38-.6.6-1.31,1.18-1.77.05.89-.15,1.61-1.18,1.77Z"/>
        <path class="cls-7" d="M254.68,3.48c4.62,1.39,8.93,3.47,12.95,6.13-.03.65-.5,1.03-.91,1.43-2.76,2.69-5.49,5.41-8.27,8.08-2.29,2.19-4.55,4.43-6.85,6.59-2.99,2.8-5.78,5.79-8.8,8.56-1.93,1.77-4.05,3.42-5.6,5.62-.69.99-1.78,1.61-2.68,2.42-2.91,2.6-5.58,5.44-8.39,8.14-3.85,3.7-7.69,7.4-11.52,11.1-1.62,1.57-3.28,3.11-4.87,4.71-.53.53-1.06,1.2-1.99.77-.53-.49-.43-1.14-.46-1.76-.14-3.52-1.59-6.39-4.27-8.65-.49-.41-.98-.8-.87-1.53.15-.63.47-1.24.95-1.59,2.13-1.56,3.61-3.83,5.79-5.33.35-.24.66-.57.95-.89,3.91-4.46,8.68-8.04,12.67-12.39,1.84-2.01,3.89-3.83,5.8-5.74,2.04-2.05,4.06-4.21,6.32-6.08,1.98-1.64,3.67-3.65,5.56-5.41,2.03-1.89,3.8-4.07,6.03-5.75.53-.4,1.03-.88,1.44-1.41,2.06-2.63,4.89-4.47,7.03-7.02Z"/>
        <path class="cls-40" d="M158,77.98c.03-.07.07-.15.11-.22.15-.57.67-.66,1.12-.79,5.07-1.51,8.04-4.88,8.94-10.09.41-2.9,1.87-5.06,4.15-6.94,2.29-1.88,4.26-4.15,6.42-6.2.3-.28.53-.54.97-.5,5.21,0,10.41,0,15.62,0,.52,0,1.06-.1,1.57.11.87.21,1.75.42,2.62.63.43.64.22,1.23-.24,1.71-1.76,1.83-3.67,3.52-5.44,5.33-1.8,1.86-3.97,3.32-5.56,5.42-1.07,1.4-2.64,2.35-3.9,3.61-2.07,2.06-4.07,4.19-6.25,6.15-1.37,1.24-3.01,1.79-4.64,2.46-4.53.12-9.06.06-13.58.03-.69,0-1.49.12-1.9-.7Z"/>
        <path class="cls-4" d="M174,77.99c3.59-1.49,5.91-4.49,8.53-7.15,1.07-1.09,2.21-2.12,3.36-3.14.93-.83,1.81-1.71,2.7-2.59,2.72-2.7,5.61-5.22,8.34-7.91.97-.95,2.14-1.81,2.59-3.21.96.15,1.74.77,2.62,1.11,4.18,2.87,6.12,6.84,5.83,11.9.78.64.39,1.44.19,2.13-1.12,3.96-3.59,6.77-7.37,8.44-.29.02-.61-.02-.86.11-2.41,1.34-5.05,1.02-7.63,1.03-4.48.03-8.96-.04-13.44.05-1.03-.37-2.08.07-3.11-.06-.64-.08-1.37.06-1.75-.7Z"/>
        <path class="cls-12" d="M196.9,53.35c-5.89.02-11.78.03-17.67.05-.47.61-1.16.66-1.84.65-5.25-.07-10.51.28-15.76-.21-.8-.07-1.5.32-2.28.33-.59-.12-1.2-.18-1.52-.81-.06-.07-.12-.15-.18-.22,7.39-.01,14.77-.03,22.16-.04,5.09,0,10.18,0,15.26,0,.62,0,1.26-.12,1.82.25Z"/>
        <path class="cls-28" d="M253.73,222.99c-.58,0-1.15,0-1.73,0,0-.09,0-.17,0-.26.58.03,1.2-.11,1.73.27Z"/>
        <path class="cls-9" d="M200.97,76.87c3.93-2.16,6.34-5.4,6.99-9.87,3.84-3.41,7.43-7.09,11.12-10.66,2.81-2.73,5.66-5.46,8.42-8.26,2.71-2.76,5.56-5.44,8.49-8.02,2-1.75,3.83-3.77,5.7-5.7.73-.76,1.57-1.42,2.33-2.15,4.09-3.92,8.02-8,12.24-11.8,3.42-3.09,6.59-6.47,9.87-9.71.44-.43.81-.98,1.49-1.09,5.1,3.02,9.57,6.8,13.44,11.27-1.26,1.25-2.73,2.23-3.98,3.5-2.71,2.74-5.57,5.32-8.31,8.03-3.53,3.49-7.08,6.96-10.69,10.36-3.26,3.07-6.38,6.28-9.61,9.38-2.5,2.4-5.06,4.74-7.55,7.14-2.25,2.16-4.62,4.22-6.67,6.59-1.26,1.46-2.82,2.61-4.15,4-2.72,2.85-5.56,5.6-8.48,8.24-2.22,2-4.04,4.4-6.43,6.23-.52.4-1.02.88-1.27,1.54.51.31,1,.18,1.47.18,4.64.01,9.27,0,13.91,0,.77,0,1.54.02,2.31.15,3.33-.33,6.66-.15,10-.13,1.81.03,3.63-.14,5.44,0,.64.05,1.41-.01,1.5.95-.38.66-1.05.61-1.66.63-2.07.04-4.13.11-6.2-.08-8.66.25-17.33.08-26,.08-1.24,0-2.48-.34-3.7.14-.57-.04-1.14-.14-1.71-.15-5.89-.98-11.83-.26-17.74-.54-1.15-.45-.79-1.23-.24-1.8,2.28-2.38,4.64-4.67,7.09-6.88.75-.68,1.79-.92,2.57-1.57Z"/>
        <path class="cls-10" d="M231.13,86.72c-5.65,0-11.31,0-16.96,0-.42,0-.98.2-1.22-.21-.3-.51.27-.87.51-1.25.8-1.24,2.06-2.01,3.08-3.03,3.54-3.53,7.23-6.92,10.73-10.48,2.69-2.74,5.46-5.41,8.17-8.12,2.85-2.84,5.73-5.68,8.76-8.36,2.01-1.78,3.89-3.7,5.82-5.57,2.86-2.77,5.72-5.55,8.57-8.34,3.37-3.3,6.67-6.68,10.12-9.91,1.79-1.68,3.54-3.41,5.36-5.06,1.45-1.32,2.85-2.72,4.25-4.11.76-.76,1.57-1.45,2.75-1.41,2.92,3.07,5.43,6.45,7.45,10.18-.12.82-.86,1.11-1.36,1.61-2.81,2.84-5.68,5.61-8.56,8.37-1.75,1.68-3.55,3.34-5.27,5.05-1.97,1.96-3.99,3.87-6.05,5.73-2.67,2.41-5.13,5.05-7.74,7.53-2.49,2.38-5.07,4.71-7.41,7.26-1.3,1.41-2.82,2.63-4.16,4.01-2,2.07-4.29,3.84-6.11,6.08-.62.76-1.48,1.23-2.15,1.92-2.33,2.42-4.76,4.75-7.15,7.12-.42.42-1.03.53-1.43.97Z"/>
        <path class="cls-15" d="M231.13,86.72c1.05-2.28,3.34-3.41,4.85-5.26,1.81-2.23,4.32-3.77,6-6.14.65-.93,1.74-1.46,2.57-2.28,3.94-3.93,8.09-7.65,11.98-11.63,2.31-2.36,4.68-4.7,7.06-6.96,2.27-2.16,4.35-4.58,6.98-6.42,1.05-.73,1.8-2.06,2.83-3,2.17-1.98,4.31-4,6.42-6.05,2.18-2.1,4.31-4.25,6.46-6.39.65-.65,1.32-1.27,2.24-1.53,1.4,2.09,2.5,4.34,3.43,6.66-.57,1.14-1.46,2.08-2.39,2.86-3.25,2.72-6.13,5.82-9.18,8.74-1.15,1.11-2.31,2.32-3.46,3.42-1.9,1.81-3.66,3.77-5.69,5.46-1.16.97-2.07,2.28-3.3,3.2-2.06,1.54-3.58,3.62-5.46,5.32-3.28,2.96-6.31,6.19-9.55,9.17-3.04,2.8-5.72,5.96-8.93,8.58-.84.68-1.44,1.67-2.41,2.24-3.48,0-6.96,0-10.43,0Z"/>
        <path class="cls-15" d="M241.57,86.71c.2-1.18,1.07-2.04,1.85-2.68,3.43-2.78,6.37-6.07,9.51-9.12,2.25-2.19,4.86-4.07,6.7-6.71.53-.75,1.42-1.3,2.24-1.79,1.22-.74,1.88-1.99,2.8-2.98,1.16-1.23,2.63-2.07,3.74-3.35,1.93-2.23,4.27-4.04,6.25-6.25.91-1.02,1.99-1.99,3.03-2.93,2.25-2.05,4.32-4.29,6.52-6.37,2.3-2.16,4.6-4.34,6.97-6.43.21-.18.51-.26.77-.38.59,1.84,1.61,3.53,1.85,5.49-2.04,1.97-4.12,3.91-6.11,5.93-2.23,2.27-4.62,4.37-6.94,6.55-1.92,1.81-3.73,3.75-5.61,5.6-2.22,2.19-4.33,4.52-6.92,6.3-.87.6-1.33,1.53-2.07,2.21-2.5,2.31-4.92,4.71-7.33,7.11-2,1.99-4.15,3.85-6.07,5.94-1.03,1.13-2.25,2.08-3.29,3.22-.26.29-.59.49-.65.91-.1.09-.19.08-.29,0-2.3-.58-4.64-.09-6.96-.27Z"/>
        <path class="cls-38" d="M248.53,86.98c.1.01.19.01.29,0,2.63.61,5.03,1.67,6.94,3.64.37.38.78.73.92,1.27-1.59,1.78-3.08,3.61-4.93,5.2-3.37,2.91-6.43,6.18-9.65,9.27-1.6,1.53-3.28,2.97-4.9,4.48-.6.56-1.31.52-2.04.52-5.89,0-11.77,0-17.66,0-.44-.51-.2-.97.1-1.44.74-1.12,1.41-2.27,2.63-3,1.84-1.11,2.83-3.12,4.49-4.42,3.14-2.48,5.84-5.42,8.63-8.23,2.43-2.44,5.2-4.54,7.35-7.26,2.61,0,5.22-.02,7.83-.03Z"/>
        <path class="cls-52" d="M153.42,222.96c12.23,0,24.46.01,36.69.02.62,0,1.25.04,1.87.06-2.23.63-4.31,1.48-6.17,2.98-4.37,3.54-5.61,10.8-2.6,15.62,1.94,3.1,4.71,5,8.18,5.97-9.11.02-18.21.04-27.32.05-2.51,0-5.02-.1-7.52.02-3.7.18-7.05-.66-9.99-2.99-3.46-3.36-4.96-7.45-3.94-12.17,1.16-5.34,4.9-8.82,10.78-9.57Z"/>
        <path class="cls-38" d="M91.08,180.77c-3.77,0-7.54,0-11.31,0-3.09,0-6.18-.02-9.28-.02-7.92,0-15.85,0-23.77,0-3.26-.01-6.53-.02-9.79-.05-.62,0-1.25.09-1.83-.26.46-.88,1.32-.7,2.05-.71,3.76-.06,7.52-.02,11.28-.03,6.46,0,12.92,0,19.37,0,1.52,0,3.06.52,4.56-.12,1.05.16,2.11.13,3.18.13,21.38,0,42.76-.06,64.13.05,4.57.02,8-1.7,10.73-5.18,2.22-1,3.35-3.19,5.07-4.74,1.03-.93,2.16-1.73,3.06-2.82,1.93-2.32,4.57-3.95,6.38-6.41.92-1.25,2.51-1.8,3.39-3.12.13-.19.36-.33.35-.63-.47-.32-1.01-.16-1.51-.16-6.12-.01-12.24-.01-18.37,0-1.72,0-3.44-.41-5.16,0-.44-.14-.87-.29-.98-.81.34-.89,1.15-.79,1.84-.79,5.01-.04,10.02-.08,15.03.01,2.88,0,5.75-.07,8.63-.05,3.12.02,6.24-.03,9.36.03,1.5.27,3.03-.05,4.55.27,1.76.38,3.39.98,4.87,1.99.54.37.98.79.76,1.53-.03.44-.11.86-.52,1.14-2.75,1.84-4.65,4.6-7.18,6.66-2.46,2.01-4.27,4.66-6.93,6.5-1.32.91-2.01,2.69-3.42,3.64-.92.62-1.71,1.34-2.36,2.23-.31.43-.69.8-.78,1.36-.46.77-1.25.63-1.95.64-2.98.06-5.96.04-8.95.01-1.59-.02-3.15.46-4.74.18-5.01.17-10.02.11-15.03.12-.92,0-1.83-.03-2.74-.17-6.36.29-12.73.22-19.09.05-7.01.24-14.02.07-21.03.1-.68,0-1.35-.05-1.87-.58Z"/>
        <path class="cls-56" d="M71.94,189.34c12.37,0,24.75.01,37.12.02.58,0,1.15.03,1.73.05-1.8.52-3.59,1.01-5.17,2.13-4.37,3.11-5.96,7.44-5.14,12.52.8,4.89,4.04,7.95,8.64,9.62.27.1.54.2.8.31-6.61.02-13.23.04-19.84.06-5.02,0-10.05-.14-15.06.05-5.04.18-9.03-1.55-12.02-5.6-.82-1.56-1.52-3.17-1.83-4.92-.24-.6.05-1.26-.22-1.86v-.04c.27-.6-.03-1.27.22-1.87.51-4.94,4.64-9.41,9.65-10.18.38-.06.75-.19,1.12-.29Z"/>
        <path class="cls-5" d="M180.02,213.98c1.98-.63,3.91-1.35,5.54-2.71,7.22-6.02,5.46-17.48-3.25-21.05-.4-.16-.79-.35-1.18-.52,10.13-.01,20.26-.02,30.39-.03.37,0,.87-.16,1.04.27.22.54-.41.66-.67.96-2.59,2.97-5.61,5.49-8.41,8.23-3.86,3.78-7.61,7.68-11.66,11.27-1.21,1.08-2.22,2.4-3.32,3.6-2.83-.01-5.66-.02-8.49-.03Z"/>
        <path class="cls-55" d="M191.11,86.7c5.35.02,10.7.03,16.05.07.76,0,1.55-.13,2.28.23-.26.59-.81.62-1.34.66-.82.06-1.64.04-2.46.04-20.82,0-41.64.08-62.45-.05-6.12-.04-11.22,3.89-12.08,10.17-.97,7.07,4.91,12.91,10.66,12.9,21.06-.04,42.12-.02,63.18-.02.82,0,1.64-.03,2.46.07.58.07,1.19.15,1.14.98-1.07.95-2.34.52-3.55.5-1.54-.09-3.07.14-4.61.12-4.92-.07-9.85.03-14.78-.05-2.49,0-4.99.05-7.48.04-5.14-.03-10.27.05-15.41-.04-6.29.08-12.58-.02-18.87.08-1.19-.38-2.39-.03-3.58-.03-7.27,0-14.53-.08-21.8.03-.85-.31-1.71-.06-2.56-.06-3.99,0-7.97.08-11.96-.03-2.16-.06-4.32-.31-6.22-1.51-2.9-1.21-4.68-3.56-6.19-6.17-.35-.6-.39-1.28-.18-1.95-.17-2.16-.51-4.31.06-6.47,1.57-5.96,5.99-9.21,11.87-9.43,1.83-.07,3.66-.05,5.49-.08.48-.59,1.16-.63,1.83-.64,3.93-.02,7.86-.06,11.8.01,6-.06,12-.03,18-.04,1.15,0,2.31-.02,3.45.11,8.9-.28,17.8,0,26.69-.16.9.34,1.81.04,2.72.04,5.15,0,10.29-.01,15.44.02.85,0,1.76-.13,2.42.64Z"/>
        <path class="cls-57" d="M61.15,131.11c.83-6.17,5.5-10.68,12.53-10.79.5-.41,1.09-.6,1.73-.61,4.16-.02,8.32-.12,12.49.05.72.27,1.42-.07,2.14-.07,6.82,0,13.64-.11,20.47.07,8.31-.13,16.63-.15,24.94,0,.72.28,1.42-.06,2.14-.06,5.76-.01,11.53-.07,17.29.03,1.92.03,3.84-.07,5.77-.05,5.49.04,10.99-.03,16.48.03.81.32,1.98-.42,2.47.84-.2.63-.74.69-1.28.73-.82.07-1.64.05-2.46.05-21.09,0-42.19.14-63.28-.08-6.01-.06-13.58,5.82-11.14,14.87.97,3.6,3.47,6.04,6.86,7.58.62.28,1.64.34,1.23,1.5-.67.4-1.41.25-2.12.25-9.98.01-19.97.01-29.95,0-1.69,0-3.37,0-5.04.35-3.15-.33-5.96-1.38-8.05-3.9-2.56-2.13-3.73-4.9-3.84-8.18-.01-.39.02-.77.23-1.11.47-.41.2-1.01.39-1.5Z"/>
        <path class="cls-54" d="M72.51,180.36c-4.33.02-8.67.06-13,.06-8.14.01-16.27,0-24.41.01-2.96-.27-5.41-1.63-7.62-3.53-1.71-2.04-3.01-4.29-3.44-6.97-.22-.51.02-1.08-.22-1.58.02-.08.05-.16.06-.24,0-.04-.03-.08-.05-.12.31-1.2.29-2.46.69-3.66,1.67-5.05,6.26-8.47,11.6-8.58.43,0,.86-.04,1.29-.05.49-.56,1.17-.61,1.84-.61,4.12-.02,8.24-.06,12.35.01,5.25-.05,10.5-.04,15.74-.03,2.12,0,4.24-.07,6.36.06.4.14.85.1,1.23.33.58,1.07-.32,1.15-.91,1.17-2.08.09-3.78,1.05-5.43,2.16-5.44,3.64-6.4,12.07-2.01,16.95,1.39,1.54,2.95,2.74,4.89,3.47.52.19,1.14.39,1.03,1.17Z"/>
        <path class="cls-12" d="M51.64,155.69c-4.74,0-9.47,0-14.21,0-.02-.58.3-.99.7-1.37,2.48-2.41,5-4.77,7.41-7.24,3.72-3.81,7.86-7.19,11.43-11.17,1.17-1.3,2.51-2.52,3.89-3.65.2.09.23.21.09.38.22,3.39,1.35,6.4,3.68,8.92.37.79.27,1.47-.43,2.06-1.98,1.65-3.96,3.37-5.6,5.29-1.88,2.2-4.39,3.72-6.04,6.1-.23.33-.63.43-.92.69Z"/>
        <path class="cls-12" d="M87.89,120.32c-4.74,0-9.47,0-14.21,0,.14-.59.5-1.03.94-1.42,3.77-3.34,7.24-7.01,10.95-10.42,1.99-1.83,3.98-3.74,5.77-5.8.86,1.54,1.55,3.18,2.73,4.54.99,1.14,2.2,2.01,3.43,2.85.46.71.16,1.28-.37,1.78-1.92,1.8-3.56,3.89-5.67,5.5-.47.36-.76.86-1.1,1.32-.64.85-1.6,1.18-2.47,1.65Z"/>
        <path class="cls-12" d="M122.39,86.7h-13.63c-.01-.57.24-1.03.68-1.36,2.12-1.57,3.66-3.76,5.79-5.32.6-.44,1.03-1.13,1.06-1.96,4.74,0,9.47,0,14.21,0,.48.62.09,1.07-.29,1.52-1.8,2.13-3.97,3.88-5.88,5.9-.54.57-1.38.68-1.95,1.21Z"/>
        <path class="cls-22" d="M60.95,132.64c-.03-.13-.06-.25-.09-.38.1-.38.19-.77.29-1.15-.07.51-.13,1.02-.2,1.53Z"/>
        <path class="cls-10" d="M25.84,277.23c-1.05,1.3-2.22,2.47-3.77,3.19-1.4-.67-.97-1.34-.07-2.14.87-.76,1.64-1.59,2.74-2.09.98-.45,1.19-.39.76.66-.09.22.15.32.34.38Z"/>
        <path class="cls-10" d="M30.48,272.88c-.39.29-.77.58-1.16.87-.38-.9-.92-.31-1.42-.16-.62.18-.82.9-1.59,1.24.32-.9.58-1.64,1.16-2.11.77-.61,1.65-1.59,2.47.02.06.11.35.1.54.15Z"/>
        <path class="cls-10" d="M48.16,255.48c-.21.37-.5.66-.87.87-.54-1.07-1.52-.34-2.42-.52.81-1.01,1.51-1.71,2.62-.55.14.15.44.14.67.2Z"/>
        <path class="cls-10" d="M41.65,259.92c-.21.45-.52.87-1.09.95-.27.04-.46-.16-.4-.44.13-.58.57-.85,1.1-.98.29-.07.43.12.38.47Z"/>
        <path class="cls-10" d="M36.13,265.44c-.27-.01-.37-.19-.32-.38.12-.48.44-.84.92-.96.23-.06.34.17.29.37-.12.49-.46.8-.89.97Z"/>
        <path class="cls-10" d="M34.82,268.53c-.29.19-.58.39-.87.58-.08-.16-.14-.35-.26-.49-.25-.31-.77-.62-.23-1,.43-.3.6.21.82.5.13.17.35.28.53.42Z"/>
        <path class="cls-10" d="M44.16,257.34c-.28.63-.6,1.02-1.13,1.12-.23.05-.32-.21-.24-.39.21-.54.65-.75,1.37-.73Z"/>
        <path class="cls-10" d="M43.52,260.12c-.21.37-.5.66-.87.87.08-.5.37-.79.87-.87Z"/>
        <path class="cls-6" d="M60.95,201.72c.23.6.24,1.23.22,1.86-.36-.59-.22-1.23-.22-1.86Z"/>
        <path class="cls-6" d="M61.17,199.81c.02.63.01,1.26-.22,1.87,0-.62-.02-1.24-.03-1.87.08,0,.16,0,.25,0Z"/>
        <path class="cls-23" d="M23.83,168.35c.23.51.23,1.04.22,1.58-.32-.49-.22-1.04-.22-1.58Z"/>
        <path class="cls-53" d="M157.83,53.35c.46.01.91.03,1.37.04,5.28.41,8.04,3.78,9.75,8.35.66,1.76-.23,3.5-.12,5.25-.94,5.35-3.89,8.96-9.17,10.53-.5.15-1.03.16-1.55.24-9.62,0-19.23-.02-28.85-.03-12.95,0-25.9,0-38.85,0-5.9,0-11.08-5.34-11.27-11.23-.13-4.05,1.06-7.41,4.11-10.06,2.13-1.86,4.57-3.04,7.46-3.04,21.7,0,43.39,0,65.09,0,.68,0,1.35-.02,2.03-.04Z"/>
        <path class="cls-1" d="M170.53,86.7c-8.89,0-17.79,0-26.68,0-.47-.48-.4-1.03,0-1.42,2.56-2.46,4.8-5.25,7.82-7.21,2.11-.03,4.22-.06,6.33-.09,5.33,0,10.67,0,16,.01,1.64.02,3.28.05,4.92.07.4,1.11-.49,1.73-1.06,2.31-1.85,1.86-3.9,3.53-5.69,5.46-.44.47-1.11.54-1.64.87Z"/>
        <path class="cls-2" d="M151.67,78.06c-.54,1.17-1.47,2.06-2.41,2.84-1.74,1.45-3.12,3.25-4.87,4.67-.37.3-.54.66-.55,1.12-7.15,0-14.3,0-21.46,0,.09-.49.32-.87.73-1.2,2.59-2.1,4.84-4.55,7.18-6.92.12-.12.15-.35.22-.53,7.05,0,14.11,0,21.16,0Z"/>
        <path class="cls-46" d="M109.63,145.01c-2.29-.93-4.39-2.08-6.15-3.92-3.91-4.09-4.33-11.31-.74-15.69,2.59-3.15,5.78-4.8,10.02-4.78,22.25.09,44.5.04,66.75.04.09-.14.2-.24.35-.32.39-.13.78-.11,1.18-.05,5.03,1.35,8.23,4.57,9.35,9.63.59,2.65.45,5.37-.67,7.93-1.97,3.95-4.67,6.93-9.46,7.14-.34.03-.69.05-1.03.08-.47.45-1.07.39-1.64.39-22.11,0-44.23,0-66.34,0-.56,0-1.18.12-1.61-.43Z"/>
        <path class="cls-38" d="M180.26,144.98c4.02-1.1,6.99-3.48,8.85-7.22,2.85-3.41,6.2-6.31,9.43-9.35,1.9-1.78,3.57-3.79,5.62-5.42.45-.36.72-.87.96-1.38-.55-.43-1.1-.28-1.61-.28-5.12-.01-10.24-.04-15.36,0-2.47.02-4.91-.09-7.33-.64l-1.03-.08c.24-1.07,1.14-.88,1.85-.9,3.41-.08,6.82-.03,10.23-.03,1.58,0,3.17-.05,4.75.03,5.39-.05,10.78-.05,16.16-.01.83,0,1.77-.21,2.38.67.77,0,1.53,0,2.3,0,.45.32,1.01-.03,1.46.25,2.16.52,4.26,1.19,5.85,2.89-2.56,2.39-5.02,4.91-7.6,7.24-3.01,2.72-5.53,5.95-8.86,8.35-1.22.88-2.12,2.21-3.18,3.33-1.69,1.78-3.58,2.73-6.23,2.64-6.21-.22-12.44-.09-18.65-.1Z"/>
        <path class="cls-19" d="M187.65,158.88c-2.28-2.33-5.22-2.9-8.29-3.11-.53-.04-1.06-.02-1.59-.03-.45-.58-.1-1.01.31-1.36,2.39-2,4.22-4.56,6.68-6.49,1.07-.84,1.72-2.19,3.16-2.6,6.47,0,12.95,0,19.42,0,.09.82-.18,1.46-.81,2.04-3.26,3.03-6.42,6.18-9.59,9.3-2.01,1.98-4.08,3.88-6.15,5.8-1.01-1.22-1.7-2.73-3.15-3.55Z"/>
        <path class="cls-15" d="M187.93,145.29c-1.33,1.89-3.21,3.27-4.74,4.96-1.73,1.91-3.84,3.43-5.41,5.48-6.09,0-12.18,0-18.27,0-.52-.67-.11-1.17.32-1.64.81-.89,1.66-1.79,2.61-2.46,1.58-1.1,2.66-2.61,3.96-3.94,1.08-1.1,2.27-2.01,3.74-2.54,3.03.06,6.06-.13,9.09.1,2.9.01,5.8.02,8.7.03Z"/>
        <path class="cls-38" d="M179.22,145.26c-3.19.05-6.38.09-9.57.14-.57.41-1.22.57-1.91.57-5.45,0-10.9.07-16.36-.03-2.49,0-4.99.07-7.48.05-4.27-.04-8.55.06-12.82-.05-2.69.05-5.37.06-8.06.04-3.99-.02-7.97.06-11.96-.04-.63-.21-1.25.03-1.87.03-8.55,0-17.1.07-25.65-.03-3.26,0-6.51.11-9.77.01-.71-.02-1.61.18-1.85-.9,11.94,0,23.88.01,35.82.02.62,0,1.25-.04,1.87-.06,1.4.04,2.79.12,4.19.12,20.84,0,41.67,0,62.51-.01.96,0,1.93-.04,2.89-.06,0,.07,0,.14,0,.21Z"/>
        <path class="cls-19" d="M150.81,180.66c5.21-.42,10.44-.17,15.66-.26,5.02,0,10.04,0,15.06.01-1.3.53-2.66.2-3.99.25-1.73.06-3.46.09-5.19-.01-1.21-.07-2.13.33-2.64,1.34-.9,1.79-2.72,2.62-4,4.03-.95,1.05-2,2.05-3.02,3.06-6.48,0-12.95,0-19.43,0-.53-.68-.13-1.22.34-1.63,1.71-1.46,3.18-3.18,4.95-4.58.82-.65,1.37-1.6,2.24-2.21Z"/>
        <path class="cls-15" d="M215.18,120.37c-6.19,0-12.37,0-18.56,0-.37-.6-.14-1.13.28-1.56,2.11-2.21,4.21-4.43,6.62-6.34.46-.37,1.12-.31,1.51-.78l3.46-.11c.3-.2.59-.19.85.07,4.65.01,9.3.02,13.95.04-.17.39-.23.91-.53,1.15-2,1.64-3.52,3.77-5.49,5.42-.78.65-1.54,1.28-2.11,2.12Z"/>
        <path class="cls-15" d="M218.93,120.62c-.5.02-1.01.06-1.46-.25.5,0,1.01-.08,1.46.25Z"/>
        <path class="cls-48" d="M209.34,111.64c-.28-.02-.57-.04-.85-.07-.64-.32-1.33-.2-2-.2-21.39,0-42.79-.11-64.18.08-4.79.04-9.99-3.73-11.44-8.39-2.19-7.03,1.99-14.34,9.18-15.87.7-.15,1.44-.16,2.16-.16,21.78,0,43.56,0,65.34,0,.63,0,1.26-.02,1.88-.03.45.02.9.04,1.34.06,4.93.42,7.72,3.59,9.24,7.83,1.71,4.76.73,9.21-2.65,13.07-1.84,2.1-4.11,3.27-6.91,3.39-.39.04-.83-.13-1.12.29Z"/>
        <path class="cls-44" d="M210.46,111.34c2.93-.9,5.47-2.37,7.3-4.91,4.77-6.62,1.97-15.95-5.65-18.84-.45-.17-.88-.36-1.33-.54,6.94-.02,13.87-.04,20.81-.05,3.04,0,6.07,0,9.11.01-.1,1.42-.99,2.48-2.02,3.19-1.24.87-2.32,1.86-3.31,2.96-1.67,1.86-3.76,3.31-5.35,5.18-1.7,2.01-4.09,3.28-5.59,5.32-1.91,2.62-5.05,4-6.57,6.93-.13.25-.25.51-.37.77-2.35,0-4.69-.02-7.04-.02Z"/>
        <path class="cls-9" d="M91.08,180.77c7.64,0,15.27,0,22.91,0,.64.79.18,1.4-.43,1.82-1.98,1.39-3.47,3.28-5.13,4.99-.66.68-1.58.89-2.27,1.5-6.79,0-13.58,0-20.37,0-.54,0-1.27.25-1.54-.44-.26-.66.36-1.04.75-1.44,1.71-1.73,3.75-3.12,5.16-5.15.3-.43.79-.71.91-1.27Z"/>
        <path class="cls-10" d="M106.16,189.08c.89-1.62,2.51-2.57,3.66-3.95,1.01-1.22,2.17-2.29,3.51-3.15.43-.28.65-.69.66-1.21,6.38,0,12.76,0,19.14,0,.56.67.14,1.14-.32,1.59-1.85,1.86-3.68,3.74-5.55,5.57-.58.57-1.35.69-1.96,1.14-6.38,0-12.76,0-19.14,0Z"/>
        <path class="cls-15" d="M125.3,189.08c.15-.62.74-.87,1.14-1.27,2.07-2.07,4.15-4.13,6.25-6.18.26-.25.42-.51.44-.87,4.51-.04,9.03-.09,13.54-.11,1.38,0,2.77-.41,4.15,0-.13,1.2-.91,2.04-1.76,2.7-1.91,1.46-3.42,3.36-5.3,4.86-.24.19-.32.57-.47.86-5.99,0-11.98,0-17.98,0Z"/>
        <path class="cls-26" d="M168.83,67c.25-4.28-1.03-7.94-4.31-10.83-1.55-1.37-3.42-2.1-5.32-2.77,6.67,0,13.35,0,20.02,0-.2,1.55-1.52,2.29-2.49,3.21-1.77,1.68-3.35,3.56-5.32,5.03-1.78,1.33-2.38,3.26-2.59,5.36Z"/>
        <path class="cls-8" d="M170.53,86.7c1.54-1.9,3.32-3.59,5.15-5.19,1.2-1.05,2.26-2.2,3.24-3.44,4.61-.01,9.23-.08,13.84-.02,2.81.04,5.56-.15,8.21-1.18-1.59,1.51-3.17,3.02-4.76,4.53-1.78,1.69-3.56,3.38-5.1,5.3-6.86,0-13.72,0-20.58,0Z"/>
        <path class="cls-48" d="M72.51,180.36c-1.63-.82-3.35-1.37-4.83-2.56-6.89-5.56-5.66-16.86,2.19-20.65,1.72-.83,3.48-1,5.26-1.36.61-1,1.63-.7,2.49-.71,7.29-.04,14.57-.02,21.86-.02.58,0,1.16-.07,1.73.04,2.01.01,4.02-.06,6.04-.05,4.66.04,9.32-.06,13.97.05,2.55-.03,5.11-.07,7.66-.04,4.05.04,8.11-.09,12.16.07.6.17,1.36.07,1.64.86.36.03.71.05,1.07.08,5.92,1.04,9.7,5.53,9.74,11.57,0,.92.03,1.83-.05,2.75-.14,1.84-1.11,3.25-2.39,4.48-2.97,4.08-6.98,5.67-12.02,5.64-20.82-.11-41.65-.04-62.48-.04-1.35,0-2.7-.07-4.05-.1Z"/>
        <path class="cls-10" d="M142.68,155.98c-.48-.09-.96-.19-1.44-.28-.59-.92.12-1.42.65-1.93,1.83-1.74,3.74-3.42,5.48-5.23,1.22-1.27,2.41-2.43,4.02-3.14,6.09,0,12.18,0,18.27,0-.11.43-.27.84-.67,1.07-1.67.96-2.75,2.49-4.01,3.88-1.05,1.16-2.35,2.09-3.53,3.14-.75.66-1.64,1.2-1.94,2.25-5.05,0-10.09,0-15.14.02-.57,0-1.16-.12-1.68.23Z"/>
        <path class="cls-42" d="M151.06,174.87c1.86-3.34,2.48-6.85,1.28-10.55-1.38-4.27-4.43-6.85-8.59-8.26,8.89,0,17.79,0,27.12,0-3.63,3-6.23,6.4-9.6,9.03-.93.73-1.62,1.75-2.44,2.62-1.83,1.94-4.04,3.49-5.7,5.61-.51.66-1.38,1.04-2.08,1.54Z"/>
        <path class="cls-6" d="M135.44,120.32c-8.31,0-16.62,0-24.94,0-.78-.83-.35-1.55.32-2.09,2.16-1.75,4.04-3.79,6.04-5.71.44-.42,1.03-.5,1.47-.86,8.5-.11,17.01-.14,25.51.02.32.68-.12,1.1-.54,1.5-1.84,1.76-3.73,3.48-5.49,5.33-.7.74-1.43,1.41-2.38,1.81Z"/>
        <path class="cls-2" d="M118.33,111.66c-1.94,2.63-4.42,4.75-6.87,6.87-.59.51-1.03.98-.96,1.79-7.54,0-15.08,0-22.62,0,1.16-1.24,2.23-2.59,3.5-3.7,2.02-1.77,3.7-3.86,5.69-5.65.23-.2.28-.59.42-.89,2.43,1.2,5.01,1.55,7.7,1.53,4.38-.04,8.76.03,13.13.06Z"/>
        <path class="cls-9" d="M177.2,120.32h-22.33c-.41-.45-.26-.91.06-1.3.43-.51.79-1.09,1.32-1.51,1.24-.98,2.46-1.98,3.39-3.28.8-1.12,1.91-1.86,3.06-2.55,7.63,0,15.27,0,22.9,0,.33.56.12,1.05-.29,1.42-2.32,2.06-4.48,4.3-6.77,6.39-.39.36-.87.59-1.34.83Z"/>
        <path class="cls-10" d="M177.2,120.32c.82-1.51,2.18-2.51,3.38-3.67,1.69-1.64,3.35-3.31,5.02-4.97,6.48,0,12.95,0,19.43,0-.69,1.25-1.88,1.99-2.92,2.89-2.01,1.76-3.9,3.63-5.49,5.79-5.04,0-10.09,0-15.13.02-.57,0-1.16-.1-1.69.23-.1.01-.19.03-.29.04-.71-.51-1.55-.15-2.31-.33Z"/>
        <path class="cls-7" d="M162.7,111.68c-.08.68-.6,1.04-1.05,1.48-2.19,2.14-4.33,4.33-6.48,6.51-.16.16-.2.43-.3.64-6.48,0-12.95,0-19.43,0,1.27-1.96,3.08-3.42,4.71-5.03,1.23-1.21,2.46-2.4,3.69-3.61,6.28,0,12.57,0,18.85,0Z"/>
        <path class="cls-2" d="M71.94,145.05c.61.38,1.3.27,1.96.28,3.21.03,6.42.04,9.64.05.48.72-.03,1.13-.46,1.59-2.36,2.51-5.07,4.67-7.3,7.31-.5.59-1.14,1.02-1.81,1.4-7.44,0-14.88,0-22.33,0,.27-1.13.9-2.04,1.8-2.74,2.39-1.86,4.14-4.39,6.47-6.25,1.39-1.11,2.19-2.82,3.86-3.56.72-.32.52-1.09.86-1.59,2.11,1.85,4.47,3.16,7.31,3.5Z"/>
        <path class="cls-6" d="M73.97,155.69c1.23-2.14,3-3.78,4.81-5.42,1.68-1.53,3.18-3.25,4.76-4.89,9.18,0,18.36,0,27.55,0,.49.62.11,1.1-.29,1.51-2.44,2.49-4.97,4.89-7.4,7.39-.6.62-1.44.93-2.16,1.4-7.5.02-15,.03-22.49.05-1.2,0-2.4.03-3.6.04-.39-.03-.77-.06-1.16-.1Z"/>
        <path class="cls-41" d="M180.83,120.69c8.26-.01,16.52-.02,24.78-.02.41,0,1-.2,1.16.31.16.51-.5.62-.79.91-2.75,2.76-5.44,5.58-8.29,8.23-2.36,2.2-4.68,4.45-6.96,6.73-.47.47-1.07.64-1.63.91,1.6-4.54,1.27-8.82-1.75-12.72-1.69-2.18-3.98-3.46-6.53-4.34Z"/>
        <path class="cls-9" d="M151.39,145.4c-.14.55-.57.86-.95,1.22-2.94,2.76-5.88,5.54-8.8,8.33-.19.18-.26.5-.39.75-6.67,0-13.34,0-20.01,0-.64-1.01.08-1.66.69-2.24,2.33-2.23,4.74-4.37,6.95-6.71.62-.65,1.48-.89,2.21-1.35,6.77,0,13.53,0,20.3,0Z"/>
        <path class="cls-8" d="M131.09,145.4c-.28,1.05-1.34,1.33-1.98,2.02-2.12,2.28-4.42,4.38-6.72,6.47-.53.48-.94,1.09-1.15,1.8-6.67,0-13.34,0-20.01,0,.29-1.09,1.33-1.46,2.03-2.16,2.38-2.35,4.74-4.72,7.11-7.09.31-.31.62-.61.72-1.06,6.67,0,13.34,0,20.01,0Z"/>
      </g>
    </g>
  </g>
</svg>